<svg xmlns="http://www.w3.org/2000/svg" xmlns:xlink="http://www.w3.org/1999/xlink" width="500" zoomAndPan="magnify" viewBox="0 0 375 374.999991" height="500" preserveAspectRatio="xMidYMid meet" version="1.0"><defs><g/><clipPath id="b7b336e197"><path d="M 194.5 152.074219 L 262.75 152.074219 L 262.75 205.324219 L 194.5 205.324219 Z M 194.5 152.074219 " clip-rule="nonzero"/></clipPath><clipPath id="498e4abaea"><path d="M 266.597656 153.289062 L 283.917969 153.289062 L 283.917969 205.175781 L 266.597656 205.175781 Z M 266.597656 153.289062 " clip-rule="nonzero"/></clipPath><clipPath id="38b2ce51df"><path d="M 267.617188 154.351562 L 282.84375 154.351562 L 282.84375 204.277344 L 267.617188 204.277344 Z M 267.617188 154.351562 " clip-rule="nonzero"/></clipPath><clipPath id="55767c39c3"><path d="M 270.109375 158.78125 L 282.84375 158.78125 L 282.84375 159.53125 L 270.109375 159.53125 Z M 270.109375 158.78125 " clip-rule="nonzero"/></clipPath><clipPath id="a1314f7a73"><path d="M 270.109375 168.6875 L 282.84375 168.6875 L 282.84375 169.441406 L 270.109375 169.441406 Z M 270.109375 168.6875 " clip-rule="nonzero"/></clipPath><clipPath id="95792e5402"><path d="M 270.109375 178.613281 L 282.84375 178.613281 L 282.84375 179.363281 L 270.109375 179.363281 Z M 270.109375 178.613281 " clip-rule="nonzero"/></clipPath><clipPath id="7521ec7429"><path d="M 270.109375 188.535156 L 282.84375 188.535156 L 282.84375 189.285156 L 270.109375 189.285156 Z M 270.109375 188.535156 " clip-rule="nonzero"/></clipPath><clipPath id="ad66c1c34e"><path d="M 270.109375 198.457031 L 282.84375 198.457031 L 282.84375 199.210938 L 270.109375 199.210938 Z M 270.109375 198.457031 " clip-rule="nonzero"/></clipPath><clipPath id="6ba7939af2"><path d="M 275.625 163.144531 L 282.847656 163.144531 L 282.847656 163.894531 L 275.625 163.894531 Z M 275.625 163.144531 " clip-rule="nonzero"/></clipPath><clipPath id="3fda0913f1"><path d="M 275.625 173.652344 L 282.847656 173.652344 L 282.847656 174.40625 L 275.625 174.40625 Z M 275.625 173.652344 " clip-rule="nonzero"/></clipPath><clipPath id="429050fd9d"><path d="M 275.625 182.972656 L 282.847656 182.972656 L 282.847656 183.726562 L 275.625 183.726562 Z M 275.625 182.972656 " clip-rule="nonzero"/></clipPath><clipPath id="ef807be4e6"><path d="M 275.625 193.5 L 282.847656 193.5 L 282.847656 194.25 L 275.625 194.25 Z M 275.625 193.5 " clip-rule="nonzero"/></clipPath></defs><rect x="-37.5" width="450" fill="#ffffff" y="-37.499999" height="449.999989" fill-opacity="1"/><rect x="-37.5" width="450" fill="#ffffff" y="-37.499999" height="449.999989" fill-opacity="1"/><g fill="#8d690a" fill-opacity="1"><g transform="translate(5.166588, 204.558608)"><g><path d="M 29.207031 1.753906 C 43.53125 1.753906 53.570312 -6.671875 55.117188 -19.941406 L 43.882812 -21.484375 C 42.6875 -13.621094 37 -8.566406 29.347656 -8.566406 C 20.082031 -8.566406 14.183594 -14.953125 14.113281 -24.996094 C 14.113281 -35.105469 19.449219 -41.496094 27.875 -41.496094 C 34.402344 -41.496094 38.757812 -37.28125 40.019531 -30.542969 L 50.972656 -33.28125 C 49.21875 -44.585938 40.160156 -51.746094 27.875 -51.746094 C 12.078125 -51.746094 2.105469 -41.355469 2.105469 -24.996094 C 2.105469 -8.636719 12.636719 1.753906 29.207031 1.753906 Z M 29.207031 1.753906 "/></g></g></g><g fill="#8d690a" fill-opacity="1"><g transform="translate(59.224966, 204.558608)"><g><path d="M 3.863281 0 L 36.648438 0 L 36.648438 -10.320312 L 15.867188 -10.320312 L 15.867188 -49.992188 L 3.863281 -49.992188 Z M 3.863281 0 "/></g></g></g><g fill="#8d690a" fill-opacity="1"><g transform="translate(94.678752, 204.558608)"><g><path d="M 29.769531 1.753906 C 46.550781 1.753906 57.503906 -8.847656 57.503906 -24.996094 C 57.503906 -41.144531 46.550781 -51.746094 29.769531 -51.746094 C 13.058594 -51.746094 2.105469 -41.144531 2.105469 -24.996094 C 2.105469 -8.847656 13.058594 1.753906 29.769531 1.753906 Z M 29.769531 -8.566406 C 20.289062 -8.566406 14.113281 -15.09375 14.113281 -24.996094 C 14.113281 -34.964844 20.289062 -41.496094 29.769531 -41.496094 C 39.316406 -41.496094 45.496094 -34.964844 45.496094 -24.996094 C 45.496094 -15.09375 39.316406 -8.566406 29.769531 -8.566406 Z M 29.769531 -8.566406 "/></g></g></g><g fill="#8d690a" fill-opacity="1"><g transform="translate(152.036822, 204.558608)"><g><path d="M 16.007812 0 L 28.015625 0 L 28.015625 -39.738281 L 42.96875 -39.738281 L 42.96875 -49.992188 L 1.054688 -49.992188 L 1.054688 -39.738281 L 16.007812 -39.738281 Z M 16.007812 0 "/></g></g></g><g fill="#8d690a" fill-opacity="1"><g transform="translate(193.809874, 204.558608)"><g/></g></g><g fill="#8d690a" fill-opacity="1"><g transform="translate(207.078563, 204.558608)"><g/></g></g><g fill="#8d690a" fill-opacity="1"><g transform="translate(220.347252, 204.558608)"><g/></g></g><g fill="#8d690a" fill-opacity="1"><g transform="translate(233.615939, 204.558608)"><g/></g></g><g fill="#8d690a" fill-opacity="1"><g transform="translate(246.88463, 204.558608)"><g/></g></g><g fill="#8d690a" fill-opacity="1"><g transform="translate(260.153321, 204.558608)"><g/></g></g><g fill="#8d690a" fill-opacity="1"><g transform="translate(273.422012, 204.558608)"><g/></g></g><g fill="#8d690a" fill-opacity="1"><g transform="translate(286.693044, 204.558608)"><g><path d="M 1.753906 0 L 42.335938 0 L 42.335938 -9.410156 L 15.164062 -9.410156 L 41.636719 -39.316406 L 41.636719 -49.992188 L 2.457031 -49.992188 L 2.457031 -40.582031 L 28.296875 -40.582031 L 1.753906 -10.53125 Z M 1.753906 0 "/></g></g></g><g fill="#8d690a" fill-opacity="1"><g transform="translate(328.535583, 204.558608)"><g><path d="M 3.863281 0 L 39.738281 0 L 39.738281 -9.617188 L 15.445312 -9.617188 L 15.445312 -21.34375 L 36.230469 -21.34375 L 36.230469 -29.839844 L 15.445312 -29.839844 L 15.445312 -40.441406 L 39.039062 -40.441406 L 39.039062 -49.992188 L 3.863281 -49.992188 Z M 3.863281 0 "/></g></g></g><g clip-path="url(#b7b336e197)"><path fill="#8d690a" d="M 201.03125 186.023438 L 203.207031 186.023438 L 203.207031 193.609375 C 203.207031 194.191406 203.679688 194.660156 204.261719 194.660156 C 204.84375 194.660156 205.316406 194.191406 205.316406 193.609375 L 205.316406 186.023438 L 206.515625 186.023438 C 206.5625 186.027344 206.609375 186.03125 206.660156 186.03125 C 207.054688 186.03125 207.566406 185.898438 208.050781 185.511719 C 209.257812 184.5625 209.941406 182.398438 210.089844 179.085938 C 210.199219 176.59375 210.292969 174.371094 218.367188 174.511719 C 218.371094 174.511719 218.371094 174.511719 218.375 174.511719 L 231.996094 174.511719 C 233.347656 174.511719 234.507812 175.019531 235.269531 175.945312 C 236.035156 176.882812 236.308594 178.136719 236.039062 179.480469 L 232.71875 196 C 232.65625 196.308594 232.738281 196.628906 232.9375 196.875 C 233.136719 197.117188 233.4375 197.261719 233.753906 197.261719 L 251.167969 197.261719 C 251.75 197.261719 252.21875 196.789062 252.21875 196.207031 L 252.21875 170.367188 C 252.21875 165.140625 247.96875 160.886719 242.742188 160.886719 L 241.40625 160.886719 L 241.40625 153.164062 C 241.40625 152.582031 240.933594 152.109375 240.351562 152.109375 C 239.769531 152.109375 239.300781 152.582031 239.300781 153.164062 L 239.300781 160.886719 L 209.949219 160.886719 L 209.949219 157.167969 C 209.949219 156.585938 209.476562 156.113281 208.894531 156.113281 L 204.121094 156.113281 C 203.539062 156.113281 203.066406 156.585938 203.066406 157.167969 L 203.066406 160.886719 L 201.101562 160.886719 C 200.792969 160.886719 200.515625 161.019531 200.324219 161.234375 C 200.113281 161.425781 199.980469 161.703125 199.980469 162.011719 L 199.980469 184.972656 C 199.980469 185.554688 200.449219 186.023438 201.03125 186.023438 Z M 250.113281 170.367188 L 250.113281 195.152344 L 235.039062 195.152344 L 238.101562 179.894531 C 238.5 177.921875 238.070312 176.046875 236.898438 174.613281 C 235.730469 173.1875 233.992188 172.402344 231.996094 172.402344 L 218.375 172.402344 C 214.25 172.367188 211.703125 172.878906 210.109375 174.058594 C 208.375 175.339844 208.0625 177.1875 207.984375 178.992188 C 207.796875 183.207031 206.773438 183.855469 206.644531 183.921875 C 206.621094 183.917969 206.601562 183.917969 206.578125 183.917969 L 202.085938 183.917969 L 202.085938 162.996094 L 242.742188 162.996094 C 246.804688 162.996094 250.113281 166.300781 250.113281 170.367188 Z M 205.175781 158.21875 L 207.84375 158.21875 L 207.84375 160.886719 L 205.175781 160.886719 Z M 255.519531 199.507812 L 195.554688 199.507812 C 194.972656 199.507812 194.5 199.976562 194.5 200.558594 L 194.5 204.070312 C 194.5 204.652344 194.972656 205.125 195.554688 205.125 L 255.519531 205.125 C 256.101562 205.125 256.574219 204.652344 256.574219 204.070312 L 256.574219 200.558594 C 256.574219 199.976562 256.101562 199.507812 255.519531 199.507812 Z M 254.464844 203.015625 L 196.609375 203.015625 L 196.609375 201.613281 L 254.464844 201.613281 Z M 253.90625 172.683594 L 253.90625 164.257812 C 253.90625 163.675781 254.375 163.203125 254.957031 163.203125 C 255.539062 163.203125 256.011719 163.675781 256.011719 164.257812 L 256.011719 172.683594 C 256.011719 173.265625 255.539062 173.738281 254.957031 173.738281 C 254.375 173.738281 253.90625 173.265625 253.90625 172.683594 Z M 260.433594 155.972656 L 260.292969 155.972656 C 258.9375 155.972656 257.835938 157.074219 257.835938 158.429688 L 257.835938 181.320312 C 257.835938 182.675781 258.9375 183.777344 260.292969 183.777344 L 260.433594 183.777344 C 261.789062 183.777344 262.890625 182.675781 262.890625 181.320312 L 262.890625 158.429688 C 262.890625 157.074219 261.789062 155.972656 260.433594 155.972656 Z M 260.785156 181.320312 C 260.785156 181.511719 260.625 181.671875 260.433594 181.671875 L 260.292969 181.671875 C 260.105469 181.671875 259.941406 181.511719 259.941406 181.320312 L 259.941406 158.429688 C 259.941406 158.238281 260.105469 158.078125 260.292969 158.078125 L 260.433594 158.078125 C 260.625 158.078125 260.785156 158.238281 260.785156 158.429688 Z M 243.265625 193.289062 C 245.871094 193.289062 247.914062 191.875 247.914062 190.066406 C 247.914062 188.261719 245.871094 186.84375 243.265625 186.84375 C 240.660156 186.84375 238.621094 188.261719 238.621094 190.066406 C 238.621094 191.875 240.660156 193.289062 243.265625 193.289062 Z M 243.265625 188.949219 C 244.84375 188.949219 245.808594 189.671875 245.808594 190.066406 C 245.808594 190.460938 244.84375 191.183594 243.265625 191.183594 C 241.691406 191.183594 240.726562 190.460938 240.726562 190.066406 C 240.726562 189.671875 241.691406 188.949219 243.265625 188.949219 Z M 243.265625 188.949219 " fill-opacity="1" fill-rule="nonzero"/></g><g clip-path="url(#498e4abaea)"><path fill="#8d690a" d="M 283.917969 153.289062 L 283.917969 205.175781 L 266.597656 205.175781 L 266.597656 153.289062 Z M 283.917969 153.289062 " fill-opacity="1" fill-rule="nonzero"/></g><g clip-path="url(#38b2ce51df)"><path fill="#ffffff" d="M 282.84375 154.351562 L 282.84375 204.277344 L 267.617188 204.277344 L 267.617188 154.351562 Z M 282.84375 154.351562 " fill-opacity="1" fill-rule="nonzero"/></g><g clip-path="url(#55767c39c3)"><path fill="#8d690a" d="M 282.84375 158.78125 L 282.84375 159.53125 L 270.109375 159.53125 L 270.109375 158.78125 Z M 282.84375 158.78125 " fill-opacity="1" fill-rule="nonzero"/></g><g clip-path="url(#a1314f7a73)"><path fill="#8d690a" d="M 282.84375 168.6875 L 282.84375 169.441406 L 270.109375 169.441406 L 270.109375 168.6875 Z M 282.84375 168.6875 " fill-opacity="1" fill-rule="nonzero"/></g><g clip-path="url(#95792e5402)"><path fill="#8d690a" d="M 282.84375 178.613281 L 282.84375 179.363281 L 270.109375 179.363281 L 270.109375 178.613281 Z M 282.84375 178.613281 " fill-opacity="1" fill-rule="nonzero"/></g><g clip-path="url(#7521ec7429)"><path fill="#8d690a" d="M 282.84375 188.535156 L 282.84375 189.285156 L 270.109375 189.285156 L 270.109375 188.535156 Z M 282.84375 188.535156 " fill-opacity="1" fill-rule="nonzero"/></g><g clip-path="url(#ad66c1c34e)"><path fill="#8d690a" d="M 282.84375 198.457031 L 282.84375 199.210938 L 270.109375 199.210938 L 270.109375 198.457031 Z M 282.84375 198.457031 " fill-opacity="1" fill-rule="nonzero"/></g><g clip-path="url(#6ba7939af2)"><path fill="#8d690a" d="M 282.847656 163.144531 L 282.847656 163.894531 L 275.625 163.894531 L 275.625 163.144531 Z M 282.847656 163.144531 " fill-opacity="1" fill-rule="nonzero"/></g><g clip-path="url(#3fda0913f1)"><path fill="#8d690a" d="M 282.847656 173.652344 L 282.847656 174.40625 L 275.625 174.40625 L 275.625 173.652344 Z M 282.847656 173.652344 " fill-opacity="1" fill-rule="nonzero"/></g><g clip-path="url(#429050fd9d)"><path fill="#8d690a" d="M 282.847656 182.972656 L 282.847656 183.726562 L 275.625 183.726562 L 275.625 182.972656 Z M 282.847656 182.972656 " fill-opacity="1" fill-rule="nonzero"/></g><g clip-path="url(#ef807be4e6)"><path fill="#8d690a" d="M 282.847656 193.5 L 282.847656 194.25 L 275.625 194.25 L 275.625 193.5 Z M 282.847656 193.5 " fill-opacity="1" fill-rule="nonzero"/></g><path stroke-linecap="butt" transform="matrix(-0.75, -0.000000001309, 0.000000001309, -0.75, 282.846519, 161.595136)" fill="none" stroke-linejoin="miter" d="M -0.0015167 0.501848 L 3.972442 0.501848 " stroke="#8d690a" stroke-width="1" stroke-opacity="1" stroke-miterlimit="4"/><path stroke-linecap="butt" transform="matrix(-0.75, -0.000000001309, 0.000000001309, -0.75, 282.846519, 166.559111)" fill="none" stroke-linejoin="miter" d="M -0.0015167 0.500689 L 3.972442 0.500689 " stroke="#8d690a" stroke-width="1" stroke-opacity="1" stroke-miterlimit="4"/><path stroke-linecap="butt" transform="matrix(-0.75, 0, 0, -0.75, 282.846519, 171.793978)" fill="none" stroke-linejoin="miter" d="M -0.0015167 0.501346 L 3.972442 0.501346 " stroke="#8d690a" stroke-width="1" stroke-opacity="1" stroke-miterlimit="4"/><path stroke-linecap="butt" transform="matrix(-0.75, 0, 0, -0.75, 282.846519, 156.92747)" fill="none" stroke-linejoin="miter" d="M -0.0015167 0.502251 L 3.972442 0.502251 " stroke="#8d690a" stroke-width="1" stroke-opacity="1" stroke-miterlimit="4"/><path stroke-linecap="butt" transform="matrix(-0.75, 0, 0, -0.75, 282.846519, 176.697761)" fill="none" stroke-linejoin="miter" d="M -0.0015167 0.498057 L 3.972442 0.498057 " stroke="#8d690a" stroke-width="1" stroke-opacity="1" stroke-miterlimit="4"/><path stroke-linecap="butt" transform="matrix(-0.75, 0, 0, -0.75, 282.846519, 181.390858)" fill="none" stroke-linejoin="miter" d="M -0.0015167 0.50031 L 3.972442 0.50031 " stroke="#8d690a" stroke-width="1" stroke-opacity="1" stroke-miterlimit="4"/><path stroke-linecap="butt" transform="matrix(-0.75, -0.000000001309, 0.000000001309, -0.75, 282.846519, 186.327057)" fill="none" stroke-linejoin="miter" d="M -0.0015167 0.498577 L 3.972442 0.498577 " stroke="#8d690a" stroke-width="1" stroke-opacity="1" stroke-miterlimit="4"/><path stroke-linecap="butt" transform="matrix(-0.75, -0.000000001309, 0.000000001309, -0.75, 282.846519, 191.654563)" fill="none" stroke-linejoin="miter" d="M -0.0015167 0.49775 L 3.972442 0.49775 " stroke="#8d690a" stroke-width="1" stroke-opacity="1" stroke-miterlimit="4"/><path stroke-linecap="butt" transform="matrix(-0.75, -0.000000001309, 0.000000001309, -0.75, 282.846519, 196.741247)" fill="none" stroke-linejoin="miter" d="M -0.0015167 0.498746 L 3.972442 0.498746 " stroke="#8d690a" stroke-width="1" stroke-opacity="1" stroke-miterlimit="4"/><path stroke-linecap="butt" transform="matrix(-0.75, -0.000000001309, 0.000000001309, -0.75, 282.846519, 202.203035)" fill="none" stroke-linejoin="miter" d="M -0.0015167 0.49988 L 3.972442 0.49988 " stroke="#8d690a" stroke-width="1" stroke-opacity="1" stroke-miterlimit="4"/></svg>