<svg width="24" height="23" viewBox="0 0 24 23" fill="none" xmlns="http://www.w3.org/2000/svg">
<path d="M16.0332 22.9445H22.2719C22.9176 22.9445 23.4399 22.4203 23.4375 21.7746L23.3961 10.564C23.3945 10.1335 23.1305 9.55347 22.8074 9.26949L12.6227 0.320657C12.1375 -0.105515 11.3488 -0.107077 10.8617 0.317142L0.585163 9.27183C0.260554 9.55464 -0.00155555 10.1335 6.94969e-06 10.564L0.0414132 21.7746C0.0437569 22.4203 0.569929 22.9445 1.21563 22.9445H7.45469C8.1004 22.9445 8.62422 22.4203 8.62422 21.7746V16.7054C8.62422 16.275 8.97383 15.9257 9.4043 15.9257H14.0836C14.5137 15.9257 14.8633 16.275 14.8633 16.7054V21.7746C14.8633 22.4203 15.3875 22.9445 16.0332 22.9445Z" fill="white"/>
</svg>
