<?xml version="1.0" encoding="UTF-8"?>
<!DOCTYPE svg PUBLIC "-//W3C//DTD SVG 1.1//EN" "http://www.w3.org/Graphics/SVG/1.1/DTD/svg11.dtd">
<svg xmlns="http://www.w3.org/2000/svg" version="1.1" width="865px" height="301px" style="shape-rendering:geometricPrecision; text-rendering:geometricPrecision; image-rendering:optimizeQuality; fill-rule:evenodd; clip-rule:evenodd" xmlns:xlink="http://www.w3.org/1999/xlink">
<g><path style="opacity:0.004" fill="#fefffe" d="M 494.5,12.5 C 495.833,13.1667 495.833,13.1667 494.5,12.5 Z"/></g>
<g><path style="opacity:0.004" fill="#fefffe" d="M 732.5,12.5 C 733.833,13.1667 733.833,13.1667 732.5,12.5 Z"/></g>
<g><path style="opacity:0.004" fill="#fefffe" d="M 24.5,14.5 C 25.8333,15.1667 25.8333,15.1667 24.5,14.5 Z"/></g>
<g><path style="opacity:0.004" fill="#fefffe" d="M 120.5,22.5 C 121.833,23.1667 121.833,23.1667 120.5,22.5 Z"/></g>
<g><path style="opacity:0.004" fill="#fefffe" d="M 8.5,24.5 C 9.83333,25.1667 9.83333,25.1667 8.5,24.5 Z"/></g>
<g><path style="opacity:0.004" fill="#fefffe" d="M 607.5,24.5 C 608.833,25.1667 608.833,25.1667 607.5,24.5 Z"/></g>
<g><path style="opacity:0.004" fill="#fefffe" d="M 74.5,40.5 C 75.8333,41.1667 75.8333,41.1667 74.5,40.5 Z"/></g>
<g><path style="opacity:0.004" fill="#fefffe" d="M 107.5,45.5 C 108.833,46.1667 108.833,46.1667 107.5,45.5 Z"/></g>
<g><path style="opacity:0.004" fill="#fefffe" d="M 241.5,45.5 C 242.833,46.1667 242.833,46.1667 241.5,45.5 Z"/></g>
<g><path style="opacity:0.004" fill="#fefffe" d="M 381.5,45.5 C 382.833,46.1667 382.833,46.1667 381.5,45.5 Z"/></g>
<g><path style="opacity:0.004" fill="#fefffe" d="M 79.5,51.5 C 80.8333,52.1667 80.8333,52.1667 79.5,51.5 Z"/></g>
<g><path style="opacity:0.004" fill="#fefffe" d="M 847.5,51.5 C 848.833,52.1667 848.833,52.1667 847.5,51.5 Z"/></g>
<g><path style="opacity:0.004" fill="#fefffe" d="M 596.5,54.5 C 597.833,55.1667 597.833,55.1667 596.5,54.5 Z"/></g>
<g><path style="opacity:0.004" fill="#fefffe" d="M 231.5,57.5 C 232.833,58.1667 232.833,58.1667 231.5,57.5 Z"/></g>
<g><path style="opacity:0.004" fill="#fefffe" d="M 315.5,59.5 C 316.833,60.1667 316.833,60.1667 315.5,59.5 Z"/></g>
<g><path style="opacity:0.004" fill="#fefffe" d="M 706.5,63.5 C 707.833,64.1667 707.833,64.1667 706.5,63.5 Z"/></g>
<g><path style="opacity:0.004" fill="#fefffe" d="M 332.5,65.5 C 333.833,66.1667 333.833,66.1667 332.5,65.5 Z"/></g>
<g><path style="opacity:0.004" fill="#fefffe" d="M 564.5,72.5 C 565.833,73.1667 565.833,73.1667 564.5,72.5 Z"/></g>
<g><path style="opacity:0.004" fill="#fefffe" d="M 755.5,73.5 C 756.833,74.1667 756.833,74.1667 755.5,73.5 Z"/></g>
<g><path style="opacity:0.004" fill="#fefffe" d="M 624.5,76.5 C 625.833,77.1667 625.833,77.1667 624.5,76.5 Z"/></g>
<g><path style="opacity:0.004" fill="#fefffe" d="M 199.5,77.5 C 200.833,78.1667 200.833,78.1667 199.5,77.5 Z"/></g>
<g><path style="opacity:0.004" fill="#fefffe" d="M 390.5,77.5 C 391.833,78.1667 391.833,78.1667 390.5,77.5 Z"/></g>
<g><path style="opacity:0.004" fill="#fefffe" d="M 627.5,79.5 C 628.833,80.1667 628.833,80.1667 627.5,79.5 Z"/></g>
<g><path style="opacity:0.004" fill="#fefffe" d="M 433.5,80.5 C 434.833,81.1667 434.833,81.1667 433.5,80.5 Z"/></g>
<g><path style="opacity:0.004" fill="#fefffe" d="M 294.5,83.5 C 295.833,84.1667 295.833,84.1667 294.5,83.5 Z"/></g>
<g><path style="opacity:0.004" fill="#fefffe" d="M 475.5,85.5 C 476.833,86.1667 476.833,86.1667 475.5,85.5 Z"/></g>
<g><path style="opacity:0.004" fill="#fefffe" d="M 273.5,86.5 C 274.833,87.1667 274.833,87.1667 273.5,86.5 Z"/></g>
<g><path style="opacity:0.004" fill="#fefffe" d="M 12.5,88.5 C 13.8333,89.1667 13.8333,89.1667 12.5,88.5 Z"/></g>
<g><path style="opacity:0.004" fill="#fefffe" d="M 86.5,95.5 C 87.8333,96.1667 87.8333,96.1667 86.5,95.5 Z"/></g>
<g><path style="opacity:0.592" fill="#d6cba2" d="M 273.5,102.5 C 271.095,103.768 268.428,104.435 265.5,104.5C 267.838,102.96 270.505,102.294 273.5,102.5 Z"/></g>
<g><path style="opacity:0.698" fill="#c3b68e" d="M 73.5,103.5 C 70.4954,105.277 67.1621,106.277 63.5,106.5C 66.5046,104.723 69.8379,103.723 73.5,103.5 Z"/></g>
<g><path style="opacity:1" fill="#9e8a4d" d="M 107.5,105.5 C 96.5163,104.514 85.5163,104.347 74.5,105C 67.6947,107.028 61.0281,109.195 54.5,111.5C 57.0078,109.076 60.0078,107.41 63.5,106.5C 67.1621,106.277 70.4954,105.277 73.5,103.5C 85.0229,100.49 96.3562,101.157 107.5,105.5 Z"/></g>
<g><path style="opacity:0.695" fill="#cab78f" d="M 535.5,111.5 C 535.737,112.791 535.404,113.791 534.5,114.5C 534.5,109.833 534.5,105.167 534.5,100.5C 533.041,100.433 531.708,100.766 530.5,101.5C 531.866,97.9561 533.533,97.7894 535.5,101C 536.273,104.454 536.273,107.954 535.5,111.5 Z"/></g>
<g><path style="opacity:0.049" fill="#feead1" d="M 806.5,105.5 C 806.167,105.5 805.833,105.5 805.5,105.5C 780.833,105.5 756.167,105.5 731.5,105.5C 731.167,105.5 730.833,105.5 730.5,105.5C 747.902,104.827 765.402,104.16 783,103.5C 790.932,104.152 798.765,104.819 806.5,105.5 Z"/></g>
<g><path style="opacity:0.004" fill="#fefffe" d="M 830.5,104.5 C 831.833,105.167 831.833,105.167 830.5,104.5 Z"/></g>
<g><path style="opacity:0.85" fill="#a5925d" d="M 404.5,127.5 C 404.167,127.5 403.833,127.5 403.5,127.5C 413.653,126.506 423.986,126.172 434.5,126.5C 434.811,119.91 434.478,113.41 433.5,107C 404.502,106.5 375.502,106.333 346.5,106.5C 346.5,113.167 346.5,119.833 346.5,126.5C 357.014,126.172 367.347,126.506 377.5,127.5C 369.167,127.5 360.833,127.5 352.5,127.5C 349.833,127.5 347.167,127.5 344.5,127.5C 344.334,120.159 344.5,112.826 345,105.5C 345.893,104.919 346.893,104.585 348,104.5C 377.023,104.272 406.19,104.772 435.5,106C 436.007,112.868 436.007,119.868 435.5,127C 425.786,127.192 416.12,127.692 406.5,128.5C 405.817,128.137 405.15,127.804 404.5,127.5 Z"/></g>
<g><path style="opacity:0.871" fill="#8d7637" d="M 638.5,106.5 C 664.328,105.502 690.328,105.169 716.5,105.5C 718.5,105.5 720.5,105.5 722.5,105.5C 722.666,113.507 722.5,121.507 722,129.5C 720.296,131.373 718.463,133.04 716.5,134.5C 716.773,132.549 716.107,131.049 714.5,130C 715.126,129.25 715.626,128.416 716,127.5C 716.953,129.592 718.286,129.925 720,128.5C 720.5,121.174 720.666,113.841 720.5,106.5C 693.167,106.5 665.833,106.5 638.5,106.5 Z"/></g>
<g><path style="opacity:0.961" fill="#af9665" d="M 303.5,104.5 C 307.137,105.263 310.47,106.597 313.5,108.5C 309.786,108.41 306.452,107.41 303.5,105.5C 303.5,105.167 303.5,104.833 303.5,104.5 Z"/></g>
<g><path style="opacity:0.475" fill="#e4d9bc" d="M 579.5,108.5 C 576.763,108.401 574.096,108.735 571.5,109.5C 572.492,107.974 573.992,107.307 576,107.5C 577.385,107.514 578.551,107.848 579.5,108.5 Z"/></g>
<g><path style="opacity:1" fill="#9a7e3c" d="M 303.5,104.5 C 303.5,104.833 303.5,105.167 303.5,105.5C 292.845,104.595 282.179,104.428 271.5,105C 267.825,105.557 264.492,106.89 261.5,109C 263.134,109.494 264.801,109.66 266.5,109.5C 266.5,110.5 266.5,111.5 266.5,112.5C 263.084,112.07 259.75,111.57 256.5,111C 250.804,112.064 246.137,114.731 242.5,119C 241.552,119.483 240.552,119.649 239.5,119.5C 239.5,119.167 239.5,118.833 239.5,118.5C 241.404,118.262 242.738,117.262 243.5,115.5C 249.705,109.731 257.038,106.064 265.5,104.5C 268.428,104.435 271.095,103.768 273.5,102.5C 283.671,100.911 293.671,101.578 303.5,104.5 Z"/></g>
<g><path style="opacity:1" fill="#8c680a" d="M 755.5,125.5 C 755.5,125.833 755.5,126.167 755.5,126.5C 754.883,126.611 754.383,126.944 754,127.5C 753.333,134.5 753.333,141.5 754,148.5C 754.5,149 755,149.5 755.5,150C 769.829,150.5 784.163,150.667 798.5,150.5C 798.5,155.167 798.5,159.833 798.5,164.5C 783.818,164.167 769.152,164.501 754.5,165.5C 753.861,169.95 753.528,174.45 753.5,179C 753.509,183.557 754.175,187.724 755.5,191.5C 772.325,192.497 789.325,192.83 806.5,192.5C 806.5,198.167 806.5,203.833 806.5,209.5C 781.908,210.49 757.241,210.823 732.5,210.5C 732.5,176.167 732.5,141.833 732.5,107.5C 756.467,106.529 780.467,106.196 804.5,106.5C 804.5,112.167 804.5,117.833 804.5,123.5C 788.014,124.092 771.681,124.758 755.5,125.5 Z"/></g>
<g><path style="opacity:1" fill="#8d6809" d="M 175.5,107.5 C 176.158,134.931 176.825,162.264 177.5,189.5C 177.5,189.833 177.5,190.167 177.5,190.5C 177.5,191.167 177.833,191.5 178.5,191.5C 192.323,192.496 206.323,192.829 220.5,192.5C 220.666,197.844 220.499,203.177 220,208.5C 219.5,209 219,209.5 218.5,210C 197.26,210.826 176.094,210.66 155,209.5C 154.706,175.538 154.539,141.538 154.5,107.5C 161.5,107.5 168.5,107.5 175.5,107.5 Z"/></g>
<g><path style="opacity:1" fill="#8d690c" d="M 303.5,105.5 C 306.452,107.41 309.786,108.41 313.5,108.5C 313.511,110.017 314.177,111.184 315.5,112C 318.873,112.101 321.373,113.601 323,116.5C 323.383,115.944 323.883,115.611 324.5,115.5C 325.833,116.5 327.167,117.5 328.5,118.5C 328.427,120.027 329.094,121.027 330.5,121.5C 331.5,121.833 332.167,122.5 332.5,123.5C 332.427,125.027 333.094,126.027 334.5,126.5C 335.504,133.897 337.504,140.897 340.5,147.5C 340.289,149.686 339.956,151.853 339.5,154C 340.978,157.099 341.644,160.432 341.5,164C 341.072,169.207 340.405,174.374 339.5,179.5C 337.138,181.919 336.138,184.919 336.5,188.5C 336.672,189.492 336.338,190.158 335.5,190.5C 335.167,190.5 334.833,190.5 334.5,190.5C 330.479,191.078 329.146,193.078 330.5,196.5C 328.833,196.5 327.167,196.5 325.5,196.5C 325.5,195.5 325.5,194.5 325.5,193.5C 324.167,193.5 322.833,193.5 321.5,193.5C 322.828,196.356 323.828,199.356 324.5,202.5C 318.263,201.105 314.596,203.439 313.5,209.5C 310.482,209.335 307.482,209.502 304.5,210C 290.867,214.904 277.034,215.404 263,211.5C 259.429,209.964 255.929,208.297 252.5,206.5C 251.928,204.922 251.594,203.422 251.5,202C 253.795,201.016 253.461,200.183 250.5,199.5C 250.46,202.053 248.794,203.053 245.5,202.5C 245.343,201.127 245.51,199.793 246,198.5C 246.654,199.696 247.154,199.696 247.5,198.5C 246.167,197.167 244.833,195.833 243.5,194.5C 241.282,193.943 238.949,193.943 236.5,194.5C 236.477,192.073 235.977,189.74 235,187.5C 234.667,187.833 234.333,188.167 234,188.5C 232.887,187.695 231.721,187.028 230.5,186.5C 230.662,184.473 230.495,182.473 230,180.5C 228.079,177.49 227.079,174.156 227,170.5C 226.617,169.944 226.117,169.611 225.5,169.5C 225.483,160.151 225.817,150.818 226.5,141.5C 226.5,141.167 226.5,140.833 226.5,140.5C 228.834,138.824 229.834,136.491 229.5,133.5C 231.411,131.035 233.578,128.702 236,126.5C 236.49,125.207 236.657,123.873 236.5,122.5C 237.833,121.833 238.833,120.833 239.5,119.5C 240.552,119.649 241.552,119.483 242.5,119C 246.137,114.731 250.804,112.064 256.5,111C 259.75,111.57 263.084,112.07 266.5,112.5C 266.5,111.5 266.5,110.5 266.5,109.5C 264.801,109.66 263.134,109.494 261.5,109C 264.492,106.89 267.825,105.557 271.5,105C 282.179,104.428 292.845,104.595 303.5,105.5 Z M 289.5,125.5 C 297.279,126.614 303.946,129.947 309.5,135.5C 310.167,136.5 310.833,137.5 311.5,138.5C 312.596,141.032 313.929,143.365 315.5,145.5C 315.5,145.833 315.5,146.167 315.5,146.5C 315.629,148.216 315.962,149.883 316.5,151.5C 316.705,157.878 316.372,164.211 315.5,170.5C 314.427,173.644 313.093,176.644 311.5,179.5C 309.738,180.262 308.738,181.596 308.5,183.5C 305.341,186.582 301.675,188.916 297.5,190.5C 294.627,190.802 291.961,191.469 289.5,192.5C 280.601,193.297 272.267,191.63 264.5,187.5C 264.027,186.094 263.027,185.427 261.5,185.5C 261.167,184.5 260.5,183.833 259.5,183.5C 258.92,181.251 257.587,179.585 255.5,178.5C 254.141,174.747 252.807,171.081 251.5,167.5C 251.5,167.167 251.5,166.833 251.5,166.5C 251.132,158.713 251.798,151.046 253.5,143.5C 255.083,141.337 256.416,139.004 257.5,136.5C 266.298,127.678 276.965,124.011 289.5,125.5 Z"/></g>
<g><path style="opacity:1" fill="#8c690a" d="M 403.5,127.5 C 403.167,127.5 402.833,127.5 402.5,127.5C 401.502,155.328 401.169,183.328 401.5,211.5C 393.913,211.814 386.413,211.481 379,210.5C 378.832,182.664 378.332,154.997 377.5,127.5C 367.347,126.506 357.014,126.172 346.5,126.5C 346.5,119.833 346.5,113.167 346.5,106.5C 375.502,106.333 404.502,106.5 433.5,107C 434.478,113.41 434.811,119.91 434.5,126.5C 423.986,126.172 413.653,126.506 403.5,127.5 Z"/></g>
<g><path style="opacity:0.956" fill="#9b874b" d="M 177.5,105.5 C 177.5,133.5 177.5,161.5 177.5,189.5C 176.825,162.264 176.158,134.931 175.5,107.5C 168.352,106.508 161.019,106.175 153.5,106.5C 153.333,141.168 153.5,175.835 154,210.5C 176.425,211.494 198.925,211.827 221.5,211.5C 221.5,204.833 221.5,198.167 221.5,191.5C 207.167,191.5 192.833,191.5 178.5,191.5C 177.833,191.5 177.5,191.167 177.5,190.5C 177.833,190.5 178.167,190.5 178.5,190.5C 193.167,190.5 207.833,190.5 222.5,190.5C 223.827,197.902 223.827,205.402 222.5,213C 198.996,213.83 175.663,213.663 152.5,212.5C 152.5,176.833 152.5,141.167 152.5,105.5C 160.852,104.428 169.185,104.428 177.5,105.5 Z"/></g>
<g><path style="opacity:1" fill="#9e8646" d="M 313.5,108.5 C 317.976,109.657 321.642,111.99 324.5,115.5C 323.883,115.611 323.383,115.944 323,116.5C 321.373,113.601 318.873,112.101 315.5,112C 314.177,111.184 313.511,110.017 313.5,108.5 Z"/></g>
<g><path style="opacity:0.663" fill="#d7ccb1" d="M 716.5,105.5 C 690.328,105.169 664.328,105.502 638.5,106.5C 638.5,107.5 638.5,108.5 638.5,109.5C 638.5,114.833 638.5,120.167 638.5,125.5C 638.167,125.5 637.833,125.5 637.5,125.5C 636.914,118.874 636.914,112.207 637.5,105.5C 663.997,104.171 690.33,104.171 716.5,105.5 Z"/></g>
<g><path style="opacity:0.33" fill="#ddd09f" d="M 152.5,105.5 C 152.5,141.167 152.5,176.833 152.5,212.5C 151.83,177.431 151.164,142.264 150.5,107C 151.044,106.283 151.711,105.783 152.5,105.5 Z"/></g>
<g><path style="opacity:0.584" fill="#cbb98d" d="M 54.5,111.5 C 53.7377,113.262 52.4044,114.262 50.5,114.5C 51.2623,112.738 52.5956,111.738 54.5,111.5 Z"/></g>
<g><path style="opacity:1" fill="#ab9760" d="M 114.5,108.5 C 120.253,110.536 124.587,114.202 127.5,119.5C 123.244,116.886 119.244,114.053 115.5,111C 114.748,110.329 114.414,109.496 114.5,108.5 Z"/></g>
<g><path style="opacity:0.004" fill="#fefffe" d="M 1.5,115.5 C 2.83333,116.167 2.83333,116.167 1.5,115.5 Z"/></g>
<g><path style="opacity:0.525" fill="#c5ba8f" d="M 243.5,115.5 C 242.738,117.262 241.404,118.262 239.5,118.5C 240.262,116.738 241.596,115.738 243.5,115.5 Z"/></g>
<g><path style="opacity:0.365" fill="#e5d5b2" d="M 50.5,114.5 C 49.1667,116.5 47.5,118.167 45.5,119.5C 46.1667,116.833 47.8333,115.167 50.5,114.5 Z"/></g>
<g><path style="opacity:0.029" fill="#fffeda" d="M 530.5,102.5 C 530.5,107.833 530.5,113.167 530.5,118.5C 509.5,118.5 488.5,118.5 467.5,118.5C 467.5,115.5 467.5,112.5 467.5,109.5C 468.473,111.948 468.806,114.615 468.5,117.5C 488.833,117.5 509.167,117.5 529.5,117.5C 529.179,112.305 529.513,107.305 530.5,102.5 Z"/></g>
<g><path style="opacity:0.039" fill="#f4f1c9" d="M 535.5,111.5 C 536.461,113.265 536.795,115.265 536.5,117.5C 538.415,117.216 540.081,117.549 541.5,118.5C 539.396,118.799 537.396,118.466 535.5,117.5C 534.873,116.583 534.539,115.583 534.5,114.5C 535.404,113.791 535.737,112.791 535.5,111.5 Z"/></g>
<g><path style="opacity:0.004" fill="#f0e7ce" d="M 541.5,118.5 C 543.898,118.259 545.898,118.926 547.5,120.5C 545.214,120.405 543.214,119.738 541.5,118.5 Z"/></g>
<g><path style="opacity:0.569" fill="#cfc590" d="M 239.5,118.5 C 239.5,118.833 239.5,119.167 239.5,119.5C 238.833,120.833 237.833,121.833 236.5,122.5C 236.738,120.596 237.738,119.262 239.5,118.5 Z"/></g>
<g><path style="opacity:0.596" fill="#c9bf9b" d="M 328.5,118.5 C 329.906,118.973 330.573,119.973 330.5,121.5C 329.094,121.027 328.427,120.027 328.5,118.5 Z"/></g>
<g><path style="opacity:0.784" fill="#c4b48c" d="M 579.5,108.5 C 581.067,109.681 581.901,111.347 582,113.5C 582.667,130.167 582.667,146.833 582,163.5C 581.943,165.91 580.776,167.244 578.5,167.5C 578.5,167.167 578.5,166.833 578.5,166.5C 579.29,165.391 579.79,164.058 580,162.5C 580.807,144.456 580.64,126.456 579.5,108.5 Z"/></g>
<g><path style="opacity:0.753" fill="#c6b485" d="M 45.5,119.5 C 44.9202,121.749 43.5869,123.415 41.5,124.5C 42.0798,122.251 43.4131,120.585 45.5,119.5 Z"/></g>
<g><path style="opacity:1" fill="#8c6f26" d="M 534.5,114.5 C 534.539,115.583 534.873,116.583 535.5,117.5C 537.396,118.466 539.396,118.799 541.5,118.5C 543.214,119.738 545.214,120.405 547.5,120.5C 550.427,121.757 552.761,123.757 554.5,126.5C 554.427,128.027 555.094,129.027 556.5,129.5C 557.457,151.807 557.791,174.14 557.5,196.5C 544.167,196.5 530.833,196.5 517.5,196.5C 517.5,193.833 517.5,191.167 517.5,188.5C 517.216,186.585 517.549,184.919 518.5,183.5C 520.451,177.077 521.785,170.411 522.5,163.5C 523.586,163.38 524.253,162.713 524.5,161.5C 525.431,158.039 525.764,154.706 525.5,151.5C 526.489,154.438 527.156,157.438 527.5,160.5C 526.242,166.455 525.242,172.455 524.5,178.5C 524.5,179.5 524.5,180.5 524.5,181.5C 522.837,183.438 522.171,185.772 522.5,188.5C 521.566,189.568 521.232,190.901 521.5,192.5C 532.167,192.5 542.833,192.5 553.5,192.5C 554.662,173.671 554.829,154.671 554,135.5C 553.911,132.157 552.411,129.824 549.5,128.5C 548.833,128.5 548.5,128.167 548.5,127.5C 547.972,126.279 547.305,125.113 546.5,124C 544.167,123.667 541.833,123.333 539.5,123C 509.664,122.169 479.997,122.336 450.5,123.5C 450.5,138.5 450.5,153.5 450.5,168.5C 454.182,168.665 457.848,168.499 461.5,168C 462.406,166.301 462.739,164.467 462.5,162.5C 463.482,158.684 464.149,154.684 464.5,150.5C 466.167,149.5 467.5,148.167 468.5,146.5C 468.842,145.662 469.508,145.328 470.5,145.5C 472.861,145.326 475.194,144.993 477.5,144.5C 490.504,144.333 503.504,144.5 516.5,145C 519.665,145.077 521.999,146.41 523.5,149C 523.333,149.5 523.167,150 523,150.5C 521.491,148.081 519.325,147.081 516.5,147.5C 500.483,147.3 484.483,147.634 468.5,148.5C 467.836,153.473 467.503,158.473 467.5,163.5C 467.597,167.652 465.931,170.652 462.5,172.5C 460.833,172.5 459.167,172.5 457.5,172.5C 457.5,178.5 457.5,184.5 457.5,190.5C 456.167,191.833 454.833,191.833 453.5,190.5C 453.5,184.5 453.5,178.5 453.5,172.5C 451.5,172.5 449.5,172.5 447.5,172.5C 446.883,172.389 446.383,172.056 446,171.5C 445.333,154.167 445.333,136.833 446,119.5C 447.897,117.984 450.064,117.317 452.5,117.5C 452.26,114.421 452.593,111.421 453.5,108.5C 457.795,107.339 462.129,107.172 466.5,108C 467.056,108.383 467.389,108.883 467.5,109.5C 467.5,112.5 467.5,115.5 467.5,118.5C 488.5,118.5 509.5,118.5 530.5,118.5C 530.5,113.167 530.5,107.833 530.5,102.5C 530.5,102.167 530.5,101.833 530.5,101.5C 531.708,100.766 533.041,100.433 534.5,100.5C 534.5,105.167 534.5,109.833 534.5,114.5 Z M 458.5,113.5 C 461.5,113.167 462.833,114.5 462.5,117.5C 461.167,117.5 459.833,117.5 458.5,117.5C 458.5,116.167 458.5,114.833 458.5,113.5 Z M 457.5,123.5 C 484.068,123.616 510.734,123.616 537.5,123.5C 541.492,124.091 545.159,125.424 548.5,127.5C 548.5,128.167 548.833,128.5 549.5,128.5C 551.61,131.826 552.943,135.492 553.5,139.5C 552.57,156.21 552.57,173.21 553.5,190.5C 543.249,191.475 532.915,191.808 522.5,191.5C 522.5,190.5 522.5,189.5 522.5,188.5C 523.612,186.401 524.279,184.067 524.5,181.5C 524.5,180.5 524.5,179.5 524.5,178.5C 526.451,172.755 527.785,166.755 528.5,160.5C 529.911,153.481 527.577,147.981 521.5,144C 513.74,142.883 505.907,142.383 498,142.5C 490.992,142.5 484.158,142.834 477.5,143.5C 474.772,143.171 472.438,143.837 470.5,145.5C 469.508,145.328 468.842,145.662 468.5,146.5C 466.167,146.833 464.833,148.167 464.5,150.5C 462.75,154.183 462.083,158.183 462.5,162.5C 461.766,163.878 461.099,165.378 460.5,167C 457.518,167.498 454.518,167.665 451.5,167.5C 451.5,153.167 451.5,138.833 451.5,124.5C 453.735,124.795 455.735,124.461 457.5,123.5 Z M 541.5,179.5 C 542.167,180.5 542.833,181.5 543.5,182.5C 541.236,183.219 538.903,183.552 536.5,183.5C 535.316,182.312 535.316,181.145 536.5,180C 538.134,179.506 539.801,179.34 541.5,179.5 Z"/></g>
<g><path style="opacity:0.078" fill="#eee3b1" d="M 457.5,112.5 C 459.5,112.5 461.5,112.5 463.5,112.5C 463.5,114.5 463.5,116.5 463.5,118.5C 461.5,118.5 459.5,118.5 457.5,118.5C 457.5,116.5 457.5,114.5 457.5,112.5 Z M 458.5,113.5 C 458.5,114.833 458.5,116.167 458.5,117.5C 459.833,117.5 461.167,117.5 462.5,117.5C 462.833,114.5 461.5,113.167 458.5,113.5 Z"/></g>
<g><path style="opacity:0.652" fill="#b7a770" d="M 450.5,123.5 C 479.997,122.336 509.664,122.169 539.5,123C 541.833,123.333 544.167,123.667 546.5,124C 547.305,125.113 547.972,126.279 548.5,127.5C 545.159,125.424 541.492,124.091 537.5,123.5C 510.734,123.616 484.068,123.616 457.5,123.5C 455.167,123.5 452.833,123.5 450.5,123.5 Z"/></g>
<g><path style="opacity:0.031" fill="#fffede" d="M 626.5,102.5 C 627.171,131.236 627.837,160.069 628.5,189C 627.847,197.265 627.18,205.432 626.5,213.5C 626.5,176.5 626.5,139.5 626.5,102.5 Z"/></g>
<g><path style="opacity:0.888" fill="#826923" d="M 638.5,109.5 C 639.487,114.305 639.821,119.305 639.5,124.5C 657.341,124.17 675.008,124.503 692.5,125.5C 674.5,125.5 656.5,125.5 638.5,125.5C 638.5,120.167 638.5,114.833 638.5,109.5 Z"/></g>
<g><path style="opacity:0.475" fill="#c9bd96" d="M 332.5,123.5 C 333.906,123.973 334.573,124.973 334.5,126.5C 333.094,126.027 332.427,125.027 332.5,123.5 Z"/></g>
<g><path style="opacity:0.039" fill="#fee8ce" d="M 637.5,125.5 C 637.833,125.5 638.167,125.5 638.5,125.5C 656.5,125.5 674.5,125.5 692.5,125.5C 692.5,126.167 692.5,126.833 692.5,127.5C 692.167,127.5 691.833,127.5 691.5,127.5C 673.5,126.833 655.5,126.167 637.5,125.5 Z"/></g>
<g><path style="opacity:0.535" fill="#ad9f6e" d="M 805.5,105.5 C 805.833,105.5 806.167,105.5 806.5,105.5C 806.5,112.5 806.5,119.5 806.5,126.5C 789.833,126.5 773.167,126.5 756.5,126.5C 756.167,126.5 755.833,126.5 755.5,126.5C 755.5,126.167 755.5,125.833 755.5,125.5C 772.167,125.5 788.833,125.5 805.5,125.5C 805.5,118.833 805.5,112.167 805.5,105.5 Z"/></g>
<g><path style="opacity:1" fill="#957d3b" d="M 127.5,119.5 C 131.01,122.358 133.343,126.024 134.5,130.5C 134.5,131.833 134.5,133.167 134.5,134.5C 131.393,129.948 129.06,124.948 127.5,119.5 Z"/></g>
<g><path style="opacity:0.346" fill="#e2d5b1" d="M 626.5,102.5 C 614.167,102.5 601.833,102.5 589.5,102.5C 589.5,139.5 589.5,176.5 589.5,213.5C 601.833,213.5 614.167,213.5 626.5,213.5C 614.011,214.495 601.344,214.829 588.5,214.5C 588.5,176.833 588.5,139.167 588.5,101.5C 601.344,101.171 614.011,101.505 626.5,102.5 Z"/></g>
<g><path style="opacity:0.918" fill="#b8a673" d="M 41.5,124.5 C 41.2639,127.621 39.9305,129.954 37.5,131.5C 38.0787,128.669 39.412,126.336 41.5,124.5 Z"/></g>
<g><path style="opacity:1" fill="#907530" d="M 279.5,124.5 C 288.334,123.07 297.001,124.237 305.5,128C 307.488,130.142 308.821,132.642 309.5,135.5C 303.946,129.947 297.279,126.614 289.5,125.5C 286.375,124.521 283.042,124.187 279.5,124.5 Z"/></g>
<g><path style="opacity:0.298" fill="#e1d9b7" d="M 554.5,126.5 C 555.906,126.973 556.573,127.973 556.5,129.5C 555.094,129.027 554.427,128.027 554.5,126.5 Z"/></g>
<g><path style="opacity:1" fill="#927533" d="M 562.5,124.5 C 563.822,124.33 564.989,124.663 566,125.5C 566.5,131.825 566.666,138.158 566.5,144.5C 565.292,145.234 563.959,145.567 562.5,145.5C 561.167,138.5 561.167,131.5 562.5,124.5 Z"/></g>
<g><path style="opacity:0.004" fill="#fefffe" d="M 763.5,128.5 C 764.833,129.167 764.833,129.167 763.5,128.5 Z"/></g>
<g><path style="opacity:1" fill="#9d884e" d="M 691.5,127.5 C 691.833,127.5 692.167,127.5 692.5,127.5C 692.013,128.473 691.513,129.473 691,130.5C 688.695,132.821 686.195,134.821 683.5,136.5C 685.453,132.88 688.119,129.88 691.5,127.5 Z"/></g>
<g><path style="opacity:0.949" fill="#9f8c50" d="M 236.5,122.5 C 236.657,123.873 236.49,125.207 236,126.5C 233.578,128.702 231.411,131.035 229.5,133.5C 230.657,129.024 232.99,125.358 236.5,122.5 Z"/></g>
<g><path style="opacity:1" fill="#b19a60" d="M 279.5,124.5 C 283.042,124.187 286.375,124.521 289.5,125.5C 276.965,124.011 266.298,127.678 257.5,136.5C 257.823,132.177 260.157,129.843 264.5,129.5C 264.5,128.5 264.5,127.5 264.5,126.5C 269.474,125.674 274.474,125.007 279.5,124.5 Z"/></g>
<g><path style="opacity:0.847" fill="#b7a979" d="M 134.5,130.5 C 136.068,133.203 137.068,136.203 137.5,139.5C 137.36,141.03 136.693,142.03 135.5,142.5C 136.773,139.603 136.439,136.937 134.5,134.5C 134.5,133.167 134.5,131.833 134.5,130.5 Z"/></g>
<g><path style="opacity:0.493" fill="#c3b58e" d="M 177.5,105.5 C 178.171,131.569 178.838,157.736 179.5,184C 179.786,185.388 179.452,186.888 178.5,188.5C 178.5,189.167 178.5,189.833 178.5,190.5C 178.167,190.5 177.833,190.5 177.5,190.5C 177.5,190.167 177.5,189.833 177.5,189.5C 177.5,161.5 177.5,133.5 177.5,105.5 Z"/></g>
<g><path style="opacity:0.637" fill="#b59b6c" d="M 402.5,127.5 C 402.833,127.5 403.167,127.5 403.5,127.5C 403.833,127.5 404.167,127.5 404.5,127.5C 403.17,154.625 403.17,181.791 404.5,209C 404.192,210.459 403.525,211.626 402.5,212.5C 402.5,184.167 402.5,155.833 402.5,127.5 Z"/></g>
<g><path style="opacity:1" fill="#8d680b" d="M 638.5,106.5 C 665.833,106.5 693.167,106.5 720.5,106.5C 720.666,113.841 720.5,121.174 720,128.5C 718.286,129.925 716.953,129.592 716,127.5C 715.626,128.416 715.126,129.25 714.5,130C 716.107,131.049 716.773,132.549 716.5,134.5C 716.5,135.167 716.167,135.5 715.5,135.5C 715.762,134.022 715.429,132.689 714.5,131.5C 713.494,131.938 713.494,132.604 714.5,133.5C 713.726,134.711 712.893,134.711 712,133.5C 710.256,134.649 710.089,135.983 711.5,137.5C 710.011,137.533 708.678,138.033 707.5,139C 707.957,139.414 708.291,139.914 708.5,140.5C 707.137,141.893 706.304,143.559 706,145.5C 704.333,144.167 702.667,144.167 701,145.5C 700.503,148.146 700.336,150.813 700.5,153.5C 697.791,153.555 695.791,154.222 694.5,155.5C 694.5,156.833 694.5,158.167 694.5,159.5C 692.901,159.232 691.568,159.566 690.5,160.5C 688.45,162.237 686.617,164.237 685,166.5C 683.989,165.663 682.822,165.33 681.5,165.5C 681.421,166.93 681.754,168.264 682.5,169.5C 680.632,170.913 678.632,172.08 676.5,173C 677.406,174.699 677.739,176.533 677.5,178.5C 674.148,177.447 670.815,177.447 667.5,178.5C 668.603,178.998 669.603,179.331 670.5,179.5C 669.754,180.736 669.421,182.07 669.5,183.5C 668.448,183.351 667.448,183.517 666.5,184C 667.38,185.356 667.714,186.856 667.5,188.5C 665.856,188.714 664.356,188.38 663,187.5C 662.5,188 662,188.5 661.5,189C 663.5,190.324 665.167,191.991 666.5,194C 684.5,194.333 702.5,194.667 720.5,195C 721.471,200.072 721.805,205.238 721.5,210.5C 694.122,210.825 666.789,210.491 639.5,209.5C 638.336,202.858 638.169,196.192 639,189.5C 644.362,183.474 649.695,177.474 655,171.5C 655.655,169.372 656.489,167.372 657.5,165.5C 657.833,164.5 658.5,163.833 659.5,163.5C 662.243,161.761 664.243,159.427 665.5,156.5C 665.833,155.5 666.5,154.833 667.5,154.5C 670.243,152.761 672.243,150.427 673.5,147.5C 673.833,146.5 674.5,145.833 675.5,145.5C 678.243,143.761 680.243,141.427 681.5,138.5C 681.833,137.5 682.5,136.833 683.5,136.5C 686.195,134.821 688.695,132.821 691,130.5C 691.513,129.473 692.013,128.473 692.5,127.5C 692.5,126.833 692.5,126.167 692.5,125.5C 675.008,124.503 657.341,124.17 639.5,124.5C 639.821,119.305 639.487,114.305 638.5,109.5C 638.5,108.5 638.5,107.5 638.5,106.5 Z"/></g>
<g><path style="opacity:0.867" fill="#bbab78" d="M 229.5,133.5 C 229.834,136.491 228.834,138.824 226.5,140.5C 226.935,137.843 227.935,135.509 229.5,133.5 Z"/></g>
<g><path style="opacity:0.753" fill="#b4a471" d="M 257.5,136.5 C 256.416,139.004 255.083,141.337 253.5,143.5C 253.045,140.069 254.379,137.736 257.5,136.5 Z"/></g>
<g><path style="opacity:0.127" fill="#f1e5bd" d="M 562.5,124.5 C 563.884,123.199 565.384,123.199 567,124.5C 567.821,131.346 567.654,138.013 566.5,144.5C 566.666,138.158 566.5,131.825 566,125.5C 564.989,124.663 563.822,124.33 562.5,124.5 Z"/></g>
<g><path style="opacity:0.059" fill="#fdedc9" d="M 755.5,126.5 C 755.833,126.5 756.167,126.5 756.5,126.5C 755.924,134.111 756.59,141.444 758.5,148.5C 757.5,148.5 756.5,148.5 755.5,148.5C 755.5,141.167 755.5,133.833 755.5,126.5 Z"/></g>
<g><path style="opacity:0.741" fill="#b39c6a" d="M 311.5,138.5 C 312.496,138.414 313.329,138.748 314,139.5C 314.813,141.436 315.313,143.436 315.5,145.5C 313.929,143.365 312.596,141.032 311.5,138.5 Z"/></g>
<g><path style="opacity:0.667" fill="#c4b486" d="M 681.5,138.5 C 680.243,141.427 678.243,143.761 675.5,145.5C 676.757,142.573 678.757,140.239 681.5,138.5 Z"/></g>
<g><path style="opacity:0.427" fill="#ddd0ac" d="M 62.5,140.5 C 61.6693,143.659 60.6693,146.659 59.5,149.5C 59.1376,145.919 60.1376,142.919 62.5,140.5 Z"/></g>
<g><path style="opacity:0.918" fill="#937b3b" d="M 377.5,127.5 C 378.332,154.997 378.832,182.664 379,210.5C 386.413,211.481 393.913,211.814 401.5,211.5C 401.169,183.328 401.502,155.328 402.5,127.5C 402.5,155.833 402.5,184.167 402.5,212.5C 394.167,213.833 385.833,213.833 377.5,212.5C 377.5,184.167 377.5,155.833 377.5,127.5 Z"/></g>
<g><path style="opacity:0.879" fill="#b4a876" d="M 556.5,129.5 C 557.887,131.877 558.721,134.543 559,137.5C 559.667,156.5 559.667,175.5 559,194.5C 558.722,195.416 558.222,196.082 557.5,196.5C 557.791,174.14 557.457,151.807 556.5,129.5 Z"/></g>
<g><path style="opacity:0.928" fill="#ab9d66" d="M 571.5,109.5 C 571.167,128.179 571.5,146.845 572.5,165.5C 574.409,166.348 576.409,166.682 578.5,166.5C 578.5,166.833 578.5,167.167 578.5,167.5C 574.303,169.32 571.47,167.987 570,163.5C 569.333,146.5 569.333,129.5 570,112.5C 570.232,111.263 570.732,110.263 571.5,109.5 Z"/></g>
<g><path style="opacity:0.717" fill="#bcae7c" d="M 730.5,105.5 C 730.833,105.5 731.167,105.5 731.5,105.5C 731.5,140.833 731.5,176.167 731.5,211.5C 731.5,211.833 731.5,212.167 731.5,212.5C 730.761,212.631 730.094,212.464 729.5,212C 729.455,176.268 729.788,140.768 730.5,105.5 Z"/></g>
<g><path style="opacity:0.482" fill="#d2b990" d="M 340.5,138.5 C 341.924,140.515 342.59,142.848 342.5,145.5C 341.076,143.485 340.41,141.152 340.5,138.5 Z"/></g>
<g><path style="opacity:0.906" fill="#b2a775" d="M 477.5,143.5 C 477.5,143.833 477.5,144.167 477.5,144.5C 475.194,144.993 472.861,145.326 470.5,145.5C 472.438,143.837 474.772,143.171 477.5,143.5 Z"/></g>
<g><path style="opacity:0.693" fill="#c8b68c" d="M 549.5,128.5 C 552.411,129.824 553.911,132.157 554,135.5C 554.829,154.671 554.662,173.671 553.5,192.5C 553.5,191.833 553.5,191.167 553.5,190.5C 552.57,173.21 552.57,156.21 553.5,139.5C 552.943,135.492 551.61,131.826 549.5,128.5 Z"/></g>
<g><path style="opacity:1" fill="#9a7c36" d="M 715.5,135.5 C 710.498,141.509 705.498,147.509 700.5,153.5C 700.336,150.813 700.503,148.146 701,145.5C 702.667,144.167 704.333,144.167 706,145.5C 706.304,143.559 707.137,141.893 708.5,140.5C 708.291,139.914 707.957,139.414 707.5,139C 708.678,138.033 710.011,137.533 711.5,137.5C 710.089,135.983 710.256,134.649 712,133.5C 712.893,134.711 713.726,134.711 714.5,133.5C 713.494,132.604 713.494,131.938 714.5,131.5C 715.429,132.689 715.762,134.022 715.5,135.5 Z"/></g>
<g><path style="opacity:0.855" fill="#a18c52" d="M 111.5,140.5 C 113.279,141.67 114.279,143.336 114.5,145.5C 119.72,144.031 125.054,143.364 130.5,143.5C 125.692,145.07 120.692,146.403 115.5,147.5C 112.701,146.189 111.368,143.855 111.5,140.5 Z"/></g>
<g><path style="opacity:0.178" fill="#f2e6ba" d="M 450.5,123.5 C 452.833,123.5 455.167,123.5 457.5,123.5C 455.735,124.461 453.735,124.795 451.5,124.5C 451.5,138.833 451.5,153.167 451.5,167.5C 454.518,167.665 457.518,167.498 460.5,167C 461.099,165.378 461.766,163.878 462.5,162.5C 462.739,164.467 462.406,166.301 461.5,168C 457.848,168.499 454.182,168.665 450.5,168.5C 450.5,153.5 450.5,138.5 450.5,123.5 Z"/></g>
<g><path style="opacity:0.098" fill="#d6c7a7" d="M 566.5,144.5 C 566.38,145.586 565.713,146.253 564.5,146.5C 563.584,146.457 562.917,146.124 562.5,145.5C 563.959,145.567 565.292,145.234 566.5,144.5 Z"/></g>
<g><path style="opacity:1" fill="#86691a" d="M 579.5,108.5 C 580.64,126.456 580.807,144.456 580,162.5C 579.79,164.058 579.29,165.391 578.5,166.5C 576.409,166.682 574.409,166.348 572.5,165.5C 571.5,146.845 571.167,128.179 571.5,109.5C 574.096,108.735 576.763,108.401 579.5,108.5 Z"/></g>
<g><path style="opacity:0.035" fill="#ded49b" d="M 574.5,112.5 C 575.5,112.5 576.5,112.5 577.5,112.5C 577.985,129.654 577.485,146.654 576,163.5C 574.515,146.654 574.015,129.654 574.5,112.5 Z"/></g>
<g><path style="opacity:0.639" fill="#d4c3a0" d="M 468.5,146.5 C 467.5,148.167 466.167,149.5 464.5,150.5C 464.833,148.167 466.167,146.833 468.5,146.5 Z"/></g>
<g><path style="opacity:0.532" fill="#c1b283" d="M 516.5,147.5 C 516.5,147.833 516.5,148.167 516.5,148.5C 502.116,148.089 487.783,148.589 473.5,150C 471.333,150.833 469.833,152.333 469,154.5C 468.819,157.695 468.319,160.695 467.5,163.5C 467.503,158.473 467.836,153.473 468.5,148.5C 484.483,147.634 500.483,147.3 516.5,147.5 Z"/></g>
<g><path style="opacity:0.169" fill="#f0e2c3" d="M 517.5,148.5 C 519.027,148.427 520.027,149.094 520.5,150.5C 518.973,150.573 517.973,149.906 517.5,148.5 Z"/></g>
<g><path style="opacity:1" fill="#ae9967" d="M 528.5,160.5 C 528.167,160.5 527.833,160.5 527.5,160.5C 527.156,157.438 526.489,154.438 525.5,151.5C 525.764,154.706 525.431,158.039 524.5,161.5C 524.253,162.713 523.586,163.38 522.5,163.5C 523.025,158.86 522.358,154.527 520.5,150.5C 520.027,149.094 519.027,148.427 517.5,148.5C 517.167,148.5 516.833,148.5 516.5,148.5C 516.5,148.167 516.5,147.833 516.5,147.5C 519.325,147.081 521.491,148.081 523,150.5C 523.167,150 523.333,149.5 523.5,149C 521.999,146.41 519.665,145.077 516.5,145C 503.504,144.5 490.504,144.333 477.5,144.5C 477.5,144.167 477.5,143.833 477.5,143.5C 484.158,142.834 490.992,142.5 498,142.5C 505.907,142.383 513.74,142.883 521.5,144C 527.577,147.981 529.911,153.481 528.5,160.5 Z"/></g>
<g><path style="opacity:0.686" fill="#c9b789" d="M 673.5,147.5 C 672.243,150.427 670.243,152.761 667.5,154.5C 668.757,151.573 670.757,149.239 673.5,147.5 Z"/></g>
<g><path style="opacity:1" fill="#977c35" d="M 334.5,126.5 C 337.535,129.902 339.535,133.902 340.5,138.5C 340.41,141.152 341.076,143.485 342.5,145.5C 344.489,153.07 344.822,160.736 343.5,168.5C 341.96,170.838 341.294,173.505 341.5,176.5C 341.737,177.791 341.404,178.791 340.5,179.5C 340.167,179.5 339.833,179.5 339.5,179.5C 340.405,174.374 341.072,169.207 341.5,164C 341.644,160.432 340.978,157.099 339.5,154C 339.956,151.853 340.289,149.686 340.5,147.5C 337.504,140.897 335.504,133.897 334.5,126.5 Z"/></g>
<g><path style="opacity:0.694" fill="#bead7c" d="M 226.5,141.5 C 225.817,150.818 225.483,160.151 225.5,169.5C 225.5,170.5 225.5,171.5 225.5,172.5C 222.784,162.086 223.117,151.752 226.5,141.5 Z"/></g>
<g><path style="opacity:0.133" fill="#e2d6b4" d="M 464.5,150.5 C 464.149,154.684 463.482,158.684 462.5,162.5C 462.083,158.183 462.75,154.183 464.5,150.5 Z"/></g>
<g><path style="opacity:0.02" fill="#ebe3b6" d="M 316.5,151.5 C 317.652,156.985 317.818,162.651 317,168.5C 316.722,169.416 316.222,170.082 315.5,170.5C 316.372,164.211 316.705,157.878 316.5,151.5 Z"/></g>
<g><path style="opacity:0.694" fill="#cdbb90" d="M 665.5,156.5 C 664.243,159.427 662.243,161.761 659.5,163.5C 660.757,160.573 662.757,158.239 665.5,156.5 Z"/></g>
<g><path style="opacity:0.844" fill="#b09e67" d="M 34.5,140.5 C 33.7141,151.482 33.3808,162.482 33.5,173.5C 30.6831,162.414 31.0165,151.414 34.5,140.5 Z"/></g>
<g><path style="opacity:1" fill="#ae9b5f" d="M 700.5,153.5 C 697.391,157.397 694.057,161.064 690.5,164.5C 690.5,163.167 690.5,161.833 690.5,160.5C 691.568,159.566 692.901,159.232 694.5,159.5C 694.5,158.167 694.5,156.833 694.5,155.5C 695.791,154.222 697.791,153.555 700.5,153.5 Z"/></g>
<g><path style="opacity:0.133" fill="#e6dcb4" d="M 527.5,160.5 C 527.833,160.5 528.167,160.5 528.5,160.5C 527.785,166.755 526.451,172.755 524.5,178.5C 525.242,172.455 526.242,166.455 527.5,160.5 Z"/></g>
<g><path style="opacity:0.09" fill="#eae1b6" d="M 253.5,143.5 C 251.798,151.046 251.132,158.713 251.5,166.5C 250.348,161.015 250.182,155.349 251,149.5C 251.566,147.277 252.4,145.277 253.5,143.5 Z"/></g>
<g><path style="opacity:1" fill="#937b35" d="M 755.5,126.5 C 755.5,133.833 755.5,141.167 755.5,148.5C 756.5,148.5 757.5,148.5 758.5,148.5C 772.291,148.456 786.291,148.456 800.5,148.5C 801.097,154.96 800.43,161.126 798.5,167C 786.757,167.811 775.091,167.644 763.5,166.5C 760.833,166.5 758.167,166.5 755.5,166.5C 755.5,174.833 755.5,183.167 755.5,191.5C 754.175,187.724 753.509,183.557 753.5,179C 753.528,174.45 753.861,169.95 754.5,165.5C 769.152,164.501 783.818,164.167 798.5,164.5C 798.5,159.833 798.5,155.167 798.5,150.5C 784.163,150.667 769.829,150.5 755.5,150C 755,149.5 754.5,149 754,148.5C 753.333,141.5 753.333,134.5 754,127.5C 754.383,126.944 754.883,126.611 755.5,126.5 Z"/></g>
<g><path style="opacity:1" fill="#9a7f38" d="M 690.5,160.5 C 690.5,161.833 690.5,163.167 690.5,164.5C 686.873,169.794 682.54,174.461 677.5,178.5C 677.739,176.533 677.406,174.699 676.5,173C 678.632,172.08 680.632,170.913 682.5,169.5C 681.754,168.264 681.421,166.93 681.5,165.5C 682.822,165.33 683.989,165.663 685,166.5C 686.617,164.237 688.45,162.237 690.5,160.5 Z"/></g>
<g><path style="opacity:0.255" fill="#e7dcb9" d="M 126.5,166.5 C 131.731,166.444 136.731,167.111 141.5,168.5C 136.269,168.556 131.269,167.889 126.5,166.5 Z"/></g>
<g><path style="opacity:0.698" fill="#d7cca7" d="M 522.5,163.5 C 521.785,170.411 520.451,177.077 518.5,183.5C 518.959,176.54 520.292,169.873 522.5,163.5 Z"/></g>
<g><path style="opacity:1" fill="#977c3b" d="M 126.5,166.5 C 131.269,167.889 136.269,168.556 141.5,168.5C 143.099,168.232 144.432,168.566 145.5,169.5C 145.5,171.833 145.5,174.167 145.5,176.5C 145.737,177.791 145.404,178.791 144.5,179.5C 144.167,179.5 143.833,179.5 143.5,179.5C 143.963,176.518 144.296,173.518 144.5,170.5C 137.124,170.034 129.958,169.701 123,169.5C 122.768,170.737 122.268,171.737 121.5,172.5C 121.5,170.833 121.5,169.167 121.5,167.5C 121.791,166.351 122.624,165.684 124,165.5C 125.07,165.528 125.903,165.861 126.5,166.5 Z"/></g>
<g><path style="opacity:0.851" fill="#c5b07f" d="M 59.5,168.5 C 60.7384,170.214 61.405,172.214 61.5,174.5C 59.7202,173.01 59.0535,171.01 59.5,168.5 Z"/></g>
<g><path style="opacity:0.345" fill="#d7cba8" d="M 145.5,169.5 C 146.239,169.369 146.906,169.536 147.5,170C 146.883,172.277 146.216,174.444 145.5,176.5C 145.5,174.167 145.5,171.833 145.5,169.5 Z"/></g>
<g><path style="opacity:0.106" fill="#e1d5b3" d="M 343.5,168.5 C 343.435,171.428 342.768,174.095 341.5,176.5C 341.294,173.505 341.96,170.838 343.5,168.5 Z"/></g>
<g><path style="opacity:1" fill="#8d6a0e" d="M 107.5,105.5 C 110.241,105.707 112.574,106.707 114.5,108.5C 114.414,109.496 114.748,110.329 115.5,111C 119.244,114.053 123.244,116.886 127.5,119.5C 129.06,124.948 131.393,129.948 134.5,134.5C 136.439,136.937 136.773,139.603 135.5,142.5C 134.081,143.451 132.415,143.784 130.5,143.5C 125.054,143.364 119.72,144.031 114.5,145.5C 114.279,143.336 113.279,141.67 111.5,140.5C 111.406,137.015 110.239,134.015 108,131.5C 106.67,130.418 105.17,129.751 103.5,129.5C 94.1983,124.946 84.5316,124.28 74.5,127.5C 71.9321,128.45 69.4321,128.45 67,127.5C 66.5045,129.473 66.3379,131.473 66.5,133.5C 64.712,133.215 63.0453,133.548 61.5,134.5C 62.8532,135.524 63.5198,136.857 63.5,138.5C 63.6716,139.492 63.3382,140.158 62.5,140.5C 60.1376,142.919 59.1376,145.919 59.5,149.5C 59.5,155.833 59.5,162.167 59.5,168.5C 59.0535,171.01 59.7202,173.01 61.5,174.5C 62.6737,175.514 63.3404,176.847 63.5,178.5C 63.238,179.978 63.5713,181.311 64.5,182.5C 66.8579,184.024 68.6912,186.024 70,188.5C 70.3826,187.944 70.8826,187.611 71.5,187.5C 74.3561,189.093 77.3561,190.427 80.5,191.5C 81.6808,193.067 83.3474,193.901 85.5,194C 90.5,194.667 95.5,194.667 100.5,194C 103.093,193.114 105.093,191.614 106.5,189.5C 110.585,189.541 113.752,187.875 116,184.5C 118.438,180.683 120.272,176.683 121.5,172.5C 122.268,171.737 122.768,170.737 123,169.5C 129.958,169.701 137.124,170.034 144.5,170.5C 144.296,173.518 143.963,176.518 143.5,179.5C 142.833,182.167 142.167,184.833 141.5,187.5C 140.85,187.196 140.183,186.863 139.5,186.5C 138.13,189.418 137.13,192.418 136.5,195.5C 134.5,198.833 131.833,201.5 128.5,203.5C 124.781,205.142 120.781,206.475 116.5,207.5C 115.221,209.146 113.555,210.313 111.5,211C 98.5621,214.956 85.5621,215.289 72.5,212C 70.5968,210.553 68.9301,208.886 67.5,207C 65.2729,206.879 63.4396,206.046 62,204.5C 61.6121,205.428 60.9454,206.095 60,206.5C 54.8254,204.675 50.3254,202.008 46.5,198.5C 46.458,195.415 45.1247,193.081 42.5,191.5C 40.0472,185.417 37.0472,179.75 33.5,174.5C 33.5,174.167 33.5,173.833 33.5,173.5C 33.3808,162.482 33.7141,151.482 34.5,140.5C 34.6896,137.145 35.6896,134.145 37.5,131.5C 39.9305,129.954 41.2639,127.621 41.5,124.5C 43.5869,123.415 44.9202,121.749 45.5,119.5C 47.5,118.167 49.1667,116.5 50.5,114.5C 52.4044,114.262 53.7377,113.262 54.5,111.5C 61.0281,109.195 67.6947,107.028 74.5,105C 85.5163,104.347 96.5163,104.514 107.5,105.5 Z"/></g>
<g><path style="opacity:1" fill="#a69156" d="M 103.5,129.5 C 105.17,129.751 106.67,130.418 108,131.5C 110.239,134.015 111.406,137.015 111.5,140.5C 109.09,136.694 106.423,133.027 103.5,129.5 Z"/></g>
<g><path style="opacity:1" fill="#ac9352" d="M 74.5,127.5 C 70.5,130.833 66.8333,134.5 63.5,138.5C 63.5198,136.857 62.8532,135.524 61.5,134.5C 63.0453,133.548 64.712,133.215 66.5,133.5C 66.3379,131.473 66.5045,129.473 67,127.5C 69.4321,128.45 71.9321,128.45 74.5,127.5 Z"/></g>
<g><path style="opacity:0.215" fill="#eee4c8" d="M 352.5,127.5 C 360.833,127.5 369.167,127.5 377.5,127.5C 377.5,155.833 377.5,184.167 377.5,212.5C 376.502,184.672 376.169,156.672 376.5,128.5C 368.316,128.826 360.316,128.492 352.5,127.5 Z"/></g>
<g><path style="opacity:0.112" fill="#f4ebc6" d="M 462.5,172.5 C 461.432,173.434 460.099,173.768 458.5,173.5C 458.822,179.358 458.489,185.025 457.5,190.5C 457.5,184.5 457.5,178.5 457.5,172.5C 459.167,172.5 460.833,172.5 462.5,172.5 Z"/></g>
<g><path style="opacity:1" fill="#af9968" d="M 547.5,185.5 C 547.846,182.398 547.179,179.565 545.5,177C 541.582,175.844 537.582,175.344 533.5,175.5C 538.065,173.169 542.398,173.336 546.5,176C 549.979,178.995 550.312,182.161 547.5,185.5 Z"/></g>
<g><path style="opacity:0.004" fill="#fefffe" d="M 708.5,175.5 C 709.833,176.167 709.833,176.167 708.5,175.5 Z"/></g>
<g><path style="opacity:1" fill="#ad945e" d="M 251.5,167.5 C 252.807,171.081 254.141,174.747 255.5,178.5C 254.504,178.586 253.671,178.252 253,177.5C 252.174,174.207 251.674,170.874 251.5,167.5 Z"/></g>
<g><path style="opacity:1" fill="#ab9159" d="M 225.5,169.5 C 226.117,169.611 226.617,169.944 227,170.5C 227.079,174.156 228.079,177.49 230,180.5C 230.495,182.473 230.662,184.473 230.5,186.5C 227.746,182.305 226.079,177.638 225.5,172.5C 225.5,171.5 225.5,170.5 225.5,169.5 Z"/></g>
<g><path style="opacity:0.482" fill="#d6c999" d="M 648.5,175.5 C 647.581,178.089 645.914,180.089 643.5,181.5C 644.419,178.911 646.086,176.911 648.5,175.5 Z"/></g>
<g><path style="opacity:0.514" fill="#d1c090" d="M 255.5,178.5 C 257.587,179.585 258.92,181.251 259.5,183.5C 257.413,182.415 256.08,180.749 255.5,178.5 Z"/></g>
<g><path style="opacity:1" fill="#a49052" d="M 121.5,167.5 C 121.5,169.167 121.5,170.833 121.5,172.5C 120.272,176.683 118.438,180.683 116,184.5C 113.752,187.875 110.585,189.541 106.5,189.5C 113.999,183.824 118.999,176.491 121.5,167.5 Z"/></g>
<g><path style="opacity:0.435" fill="#ddd1a2" d="M 311.5,179.5 C 311.262,181.404 310.262,182.738 308.5,183.5C 308.738,181.596 309.738,180.262 311.5,179.5 Z"/></g>
<g><path style="opacity:0.549" fill="#c9bb8e" d="M 447.5,172.5 C 449.5,172.5 451.5,172.5 453.5,172.5C 453.5,178.5 453.5,184.5 453.5,190.5C 452.673,185.349 452.173,180.016 452,174.5C 450.378,173.901 448.878,173.234 447.5,172.5 Z"/></g>
<g><path style="opacity:0.075" fill="#fff8d8" d="M 763.5,166.5 C 761.393,167.468 759.059,167.802 756.5,167.5C 756.5,175.167 756.5,182.833 756.5,190.5C 773.342,190.17 790.008,190.503 806.5,191.5C 789.5,191.5 772.5,191.5 755.5,191.5C 755.5,183.167 755.5,174.833 755.5,166.5C 758.167,166.5 760.833,166.5 763.5,166.5 Z"/></g>
<g><path style="opacity:1" fill="#a58f54" d="M 33.5,174.5 C 37.0472,179.75 40.0472,185.417 42.5,191.5C 45.1247,193.081 46.458,195.415 46.5,198.5C 39.5803,192 35.2469,184 33.5,174.5 Z"/></g>
<g><path style="opacity:1" fill="#8c6d21" d="M 533.5,175.5 C 537.582,175.344 541.582,175.844 545.5,177C 547.179,179.565 547.846,182.398 547.5,185.5C 547.027,186.906 546.027,187.573 544.5,187.5C 542.708,187.366 541.042,187.699 539.5,188.5C 537.265,188.795 535.265,188.461 533.5,187.5C 533.576,185.077 532.576,183.244 530.5,182C 532.201,180.14 533.201,177.973 533.5,175.5 Z M 541.5,179.5 C 542.167,180.5 542.833,181.5 543.5,182.5C 541.236,183.219 538.903,183.552 536.5,183.5C 535.316,182.312 535.316,181.145 536.5,180C 538.134,179.506 539.801,179.34 541.5,179.5 Z"/></g>
<g><path style="opacity:0.212" fill="#f2e1b3" d="M 541.5,179.5 C 544.051,179.668 544.718,180.668 543.5,182.5C 542.833,181.5 542.167,180.5 541.5,179.5 Z"/></g>
<g><path style="opacity:0.635" fill="#b7a665" d="M 541.5,179.5 C 539.801,179.34 538.134,179.506 536.5,180C 535.316,181.145 535.316,182.312 536.5,183.5C 533.683,183.199 533.016,181.866 534.5,179.5C 536.973,178.203 539.307,178.203 541.5,179.5 Z"/></g>
<g><path style="opacity:0.2" fill="#e3d8ae" d="M 143.5,179.5 C 143.833,179.5 144.167,179.5 144.5,179.5C 144.585,182.649 143.585,185.316 141.5,187.5C 142.167,184.833 142.833,182.167 143.5,179.5 Z"/></g>
<g><path style="opacity:1" fill="#a18f54" d="M 533.5,175.5 C 533.201,177.973 532.201,180.14 530.5,182C 532.576,183.244 533.576,185.077 533.5,187.5C 528.685,185.524 527.519,182.191 530,177.5C 530.816,176.177 531.983,175.511 533.5,175.5 Z"/></g>
<g><path style="opacity:0.984" fill="#ac945d" d="M 339.5,179.5 C 339.833,179.5 340.167,179.5 340.5,179.5C 339.958,182.912 338.625,185.912 336.5,188.5C 336.138,184.919 337.138,181.919 339.5,179.5 Z"/></g>
<g><path style="opacity:0.553" fill="#dcd1aa" d="M 524.5,181.5 C 524.279,184.067 523.612,186.401 522.5,188.5C 522.171,185.772 522.837,183.438 524.5,181.5 Z"/></g>
<g><path style="opacity:0.004" fill="#fefffe" d="M 205.5,185.5 C 206.833,186.167 206.833,186.167 205.5,185.5 Z"/></g>
<g><path style="opacity:0.016" fill="#e5dd9d" d="M 261.5,185.5 C 263.027,185.427 264.027,186.094 264.5,187.5C 262.973,187.573 261.973,186.906 261.5,185.5 Z"/></g>
<g><path style="opacity:0.659" fill="#ccbb8e" d="M 641.5,183.5 C 640.585,185.754 639.252,187.754 637.5,189.5C 637.167,189.5 636.833,189.5 636.5,189.5C 637.419,186.911 639.086,184.911 641.5,183.5 Z"/></g>
<g><path style="opacity:1" fill="#b09a62" d="M 63.5,178.5 C 66.1379,181.474 68.8046,184.474 71.5,187.5C 70.8826,187.611 70.3826,187.944 70,188.5C 68.6912,186.024 66.8579,184.024 64.5,182.5C 63.5713,181.311 63.238,179.978 63.5,178.5 Z"/></g>
<g><path style="opacity:1" fill="#b29c68" d="M 141.5,187.5 C 140.617,190.704 138.95,193.371 136.5,195.5C 137.13,192.418 138.13,189.418 139.5,186.5C 140.183,186.863 140.85,187.196 141.5,187.5 Z"/></g>
<g><path style="opacity:0.561" fill="#d6cfae" d="M 544.5,187.5 C 543.359,188.339 542.026,189.006 540.5,189.5C 539.893,189.376 539.56,189.043 539.5,188.5C 541.042,187.699 542.708,187.366 544.5,187.5 Z"/></g>
<g><path style="opacity:1" fill="#8e6f23" d="M 315.5,146.5 C 316.5,146.5 317.5,146.5 318.5,146.5C 319.323,155.169 318.99,163.836 317.5,172.5C 314.9,177.248 312.567,182.082 310.5,187C 311.707,188.3 312.374,189.8 312.5,191.5C 311.127,191.657 309.793,191.49 308.5,191C 309.604,189.869 309.271,189.035 307.5,188.5C 304.122,189.591 300.789,190.591 297.5,191.5C 297.5,191.167 297.5,190.833 297.5,190.5C 301.675,188.916 305.341,186.582 308.5,183.5C 310.262,182.738 311.262,181.404 311.5,179.5C 313.093,176.644 314.427,173.644 315.5,170.5C 316.222,170.082 316.722,169.416 317,168.5C 317.818,162.651 317.652,156.985 316.5,151.5C 315.962,149.883 315.629,148.216 315.5,146.5 Z"/></g>
<g><path style="opacity:0.103" fill="#feedc7" d="M 178.5,188.5 C 193.265,189.151 207.931,189.818 222.5,190.5C 207.833,190.5 193.167,190.5 178.5,190.5C 178.5,189.833 178.5,189.167 178.5,188.5 Z"/></g>
<g><path style="opacity:0.773" fill="#d2c29a" d="M 297.5,190.5 C 297.5,190.833 297.5,191.167 297.5,191.5C 294.904,192.265 292.237,192.599 289.5,192.5C 291.961,191.469 294.627,190.802 297.5,190.5 Z"/></g>
<g><path style="opacity:0.012" fill="#f1e7cc" d="M 334.5,190.5 C 334.833,190.5 335.167,190.5 335.5,190.5C 335.573,192.027 334.906,193.027 333.5,193.5C 333.557,192.391 333.89,191.391 334.5,190.5 Z"/></g>
<g><path style="opacity:0.02" fill="#fdfccd" d="M 522.5,188.5 C 522.5,189.5 522.5,190.5 522.5,191.5C 532.915,191.808 543.249,191.475 553.5,190.5C 553.5,191.167 553.5,191.833 553.5,192.5C 542.833,192.5 532.167,192.5 521.5,192.5C 521.232,190.901 521.566,189.568 522.5,188.5 Z"/></g>
<g><path style="opacity:0.093" fill="#fef2c8" d="M 667.5,190.5 C 686.167,191.167 704.833,191.833 723.5,192.5C 704.833,192.5 686.167,192.5 667.5,192.5C 665.067,192.214 665.067,191.548 667.5,190.5 Z"/></g>
<g><path style="opacity:1" fill="#a18a4c" d="M 106.5,189.5 C 105.093,191.614 103.093,193.114 100.5,194C 95.5,194.667 90.5,194.667 85.5,194C 83.3474,193.901 81.6808,193.067 80.5,191.5C 89.3485,193.04 98.0151,192.374 106.5,189.5 Z"/></g>
<g><path style="opacity:1" fill="#9e813d" d="M 334.5,190.5 C 333.89,191.391 333.557,192.391 333.5,193.5C 331.478,197.522 328.478,200.522 324.5,202.5C 323.828,199.356 322.828,196.356 321.5,193.5C 322.833,193.5 324.167,193.5 325.5,193.5C 325.5,194.5 325.5,195.5 325.5,196.5C 327.167,196.5 328.833,196.5 330.5,196.5C 329.146,193.078 330.479,191.078 334.5,190.5 Z"/></g>
<g><path style="opacity:0.812" fill="#b9af8b" d="M 517.5,188.5 C 517.5,191.167 517.5,193.833 517.5,196.5C 516.733,195.828 516.066,194.995 515.5,194C 516.109,192.052 516.776,190.218 517.5,188.5 Z"/></g>
<g><path style="opacity:0.557" fill="#c9b682" d="M 517.5,196.5 C 530.833,196.5 544.167,196.5 557.5,196.5C 545.765,197.176 533.931,197.843 522,198.5C 520.378,197.901 518.878,197.234 517.5,196.5 Z"/></g>
<g><path style="opacity:0.688" fill="#ccbb93" d="M 567.5,202.5 C 523.167,202.5 478.833,202.5 434.5,202.5C 435.172,201.733 436.005,201.066 437,200.5C 472.455,200.687 508.288,200.687 544.5,200.5C 552.296,201.137 559.963,201.804 567.5,202.5 Z"/></g>
<g><path style="opacity:1" fill="#987b35" d="M 324.5,202.5 C 321.642,206.01 317.976,208.343 313.5,209.5C 314.596,203.439 318.263,201.105 324.5,202.5 Z"/></g>
<g><path style="opacity:1" fill="#967b3a" d="M 434.5,202.5 C 478.833,202.5 523.167,202.5 567.5,202.5C 568.16,203.964 568.493,205.631 568.5,207.5C 568.712,210.011 568.045,212.178 566.5,214C 522.833,214.667 479.167,214.667 435.5,214C 433.23,210.39 432.896,206.557 434.5,202.5 Z M 551.5,206.5 C 552.833,206.5 554.167,206.5 555.5,206.5C 557.631,207.314 559.964,207.814 562.5,208C 546.837,208.5 531.17,208.667 515.5,208.5C 490.164,208.667 464.831,208.5 439.5,208C 477.002,207.833 514.336,207.333 551.5,206.5 Z"/></g>
<g><path style="opacity:0.024" fill="#fffed5" d="M 551.5,206.5 C 514.336,207.333 477.002,207.833 439.5,208C 464.831,208.5 490.164,208.667 515.5,208.5C 515.5,208.833 515.5,209.167 515.5,209.5C 489.833,209.5 464.167,209.5 438.5,209.5C 438.5,208.5 438.5,207.5 438.5,206.5C 476.167,206.5 513.833,206.5 551.5,206.5 Z"/></g>
<g><path style="opacity:0.01" fill="#fefcf6" d="M 555.5,206.5 C 558.167,206.5 560.833,206.5 563.5,206.5C 563.5,207.5 563.5,208.5 563.5,209.5C 547.5,209.5 531.5,209.5 515.5,209.5C 515.5,209.167 515.5,208.833 515.5,208.5C 531.17,208.667 546.837,208.5 562.5,208C 559.964,207.814 557.631,207.314 555.5,206.5 Z"/></g>
<g><path style="opacity:1" fill="#876918" d="M 175.5,107.5 C 168.5,107.5 161.5,107.5 154.5,107.5C 154.539,141.538 154.706,175.538 155,209.5C 176.094,210.66 197.26,210.826 218.5,210C 219,209.5 219.5,209 220,208.5C 220.499,203.177 220.666,197.844 220.5,192.5C 206.323,192.829 192.323,192.496 178.5,191.5C 192.833,191.5 207.167,191.5 221.5,191.5C 221.5,198.167 221.5,204.833 221.5,211.5C 198.925,211.827 176.425,211.494 154,210.5C 153.5,175.835 153.333,141.168 153.5,106.5C 161.019,106.175 168.352,106.508 175.5,107.5 Z"/></g>
<g><path style="opacity:1" fill="#886817" d="M 438.5,209.5 C 464.167,209.5 489.833,209.5 515.5,209.5C 531.5,209.5 547.5,209.5 563.5,209.5C 564.5,209.5 565.5,209.5 566.5,209.5C 566.5,210.5 566.5,211.5 566.5,212.5C 523.499,212.667 480.499,212.5 437.5,212C 436.117,210.539 436.451,209.706 438.5,209.5 Z"/></g>
<g><path style="opacity:1" fill="#8a6c1f" d="M 657.5,165.5 C 656.489,167.372 655.655,169.372 655,171.5C 649.695,177.474 644.362,183.474 639,189.5C 638.169,196.192 638.336,202.858 639.5,209.5C 666.789,210.491 694.122,210.825 721.5,210.5C 721.805,205.238 721.471,200.072 720.5,195C 702.5,194.667 684.5,194.333 666.5,194C 665.167,191.991 663.5,190.324 661.5,189C 662,188.5 662.5,188 663,187.5C 664.356,188.38 665.856,188.714 667.5,188.5C 667.714,186.856 667.38,185.356 666.5,184C 667.448,183.517 668.448,183.351 669.5,183.5C 669.421,182.07 669.754,180.736 670.5,179.5C 669.603,179.331 668.603,178.998 667.5,178.5C 670.815,177.447 674.148,177.447 677.5,178.5C 674.514,182.817 671.18,186.817 667.5,190.5C 665.067,191.548 665.067,192.214 667.5,192.5C 685.329,193.332 703.329,193.832 721.5,194C 722.475,199.741 722.808,205.575 722.5,211.5C 694.167,211.5 665.833,211.5 637.5,211.5C 637.5,204.167 637.5,196.833 637.5,189.5C 639.252,187.754 640.585,185.754 641.5,183.5C 641.833,182.5 642.5,181.833 643.5,181.5C 645.914,180.089 647.581,178.089 648.5,175.5C 650.788,171.544 653.788,168.211 657.5,165.5 Z"/></g>
<g><path style="opacity:1" fill="#84691b" d="M 731.5,105.5 C 756.167,105.5 780.833,105.5 805.5,105.5C 805.5,112.167 805.5,118.833 805.5,125.5C 788.833,125.5 772.167,125.5 755.5,125.5C 771.681,124.758 788.014,124.092 804.5,123.5C 804.5,117.833 804.5,112.167 804.5,106.5C 780.467,106.196 756.467,106.529 732.5,107.5C 732.5,141.833 732.5,176.167 732.5,210.5C 757.241,210.823 781.908,210.49 806.5,209.5C 781.856,211.491 756.856,212.157 731.5,211.5C 731.5,176.167 731.5,140.833 731.5,105.5 Z"/></g>
<g><path style="opacity:0.898" fill="#aa9a65" d="M 636.5,189.5 C 636.833,189.5 637.167,189.5 637.5,189.5C 637.5,196.833 637.5,204.167 637.5,211.5C 665.833,211.5 694.167,211.5 722.5,211.5C 722.808,205.575 722.475,199.741 721.5,194C 703.329,193.832 685.329,193.332 667.5,192.5C 686.167,192.5 704.833,192.5 723.5,192.5C 724.165,195.649 724.498,198.982 724.5,202.5C 724.453,206.267 723.786,209.767 722.5,213C 693.833,213.667 665.167,213.667 636.5,213C 635.173,205.068 635.173,197.235 636.5,189.5 Z"/></g>
<g><path style="opacity:0.875" fill="#a79661" d="M 755.5,191.5 C 772.5,191.5 789.5,191.5 806.5,191.5C 807.821,194.598 808.488,198.098 808.5,202C 808.483,205.75 808.149,209.417 807.5,213C 781.997,213.83 756.663,213.663 731.5,212.5C 731.5,212.167 731.5,211.833 731.5,211.5C 756.856,212.157 781.856,211.491 806.5,209.5C 806.5,203.833 806.5,198.167 806.5,192.5C 789.325,192.83 772.325,192.497 755.5,191.5 Z"/></g>
<g><path style="opacity:0.894" fill="#aa9964" d="M 305.5,212.5 C 300.808,214.012 295.975,215.345 291,216.5C 290.601,216.272 290.435,215.938 290.5,215.5C 295.185,213.508 300.185,212.508 305.5,212.5 Z"/></g>
<g><path style="opacity:0.986" fill="#826f3a" d="M 626.5,102.5 C 626.5,139.5 626.5,176.5 626.5,213.5C 614.167,213.5 601.833,213.5 589.5,213.5C 589.5,176.5 589.5,139.5 589.5,102.5C 601.833,102.5 614.167,102.5 626.5,102.5 Z M 623.5,105.5 C 621.534,106.834 619.534,108.168 617.5,109.5C 619.624,110.149 621.624,110.983 623.5,112C 621.578,113.233 619.411,113.4 617,112.5C 609.766,112.695 602.933,113.695 596.5,115.5C 604.99,116.33 613.657,116.83 622.5,117C 620.618,117.198 618.952,117.698 617.5,118.5C 617.5,118.833 617.5,119.167 617.5,119.5C 619.042,120.163 620.709,120.83 622.5,121.5C 617.683,122.167 613.017,122.834 608.5,123.5C 607.957,123.56 607.624,123.893 607.5,124.5C 612.563,126.1 617.563,126.433 622.5,125.5C 622.5,126.5 622.5,127.5 622.5,128.5C 620.585,128.216 618.919,128.549 617.5,129.5C 617.5,130.167 617.833,130.5 618.5,130.5C 619.609,131.29 620.942,131.79 622.5,132C 623.833,132.667 623.833,133.333 622.5,134C 613.657,134.17 604.99,134.67 596.5,135.5C 596.5,135.833 596.5,136.167 596.5,136.5C 605.009,137.167 613.676,137.833 622.5,138.5C 621.051,139.172 619.718,139.839 618.5,140.5C 617.833,140.5 617.5,140.833 617.5,141.5C 618.952,142.302 620.618,142.802 622.5,143C 623.833,143.667 623.833,144.333 622.5,145C 617.456,144.334 612.456,144.834 607.5,146.5C 607.624,147.107 607.957,147.44 608.5,147.5C 613.316,148.326 618.316,148.826 623.5,149C 621.498,150.019 619.498,150.852 617.5,151.5C 617.5,152.167 617.833,152.5 618.5,152.5C 620.158,153.181 621.825,154.015 623.5,155C 614.324,155.17 605.324,155.67 596.5,156.5C 596.5,157.833 597.167,158.5 598.5,158.5C 606.323,159.329 614.323,159.829 622.5,160C 620.618,160.198 618.952,160.698 617.5,161.5C 617.5,162.167 617.833,162.5 618.5,162.5C 619.609,163.29 620.942,163.79 622.5,164C 620.292,164.191 618.292,164.691 616.5,165.5C 613.8,164.484 611.134,164.484 608.5,165.5C 607.479,166.002 607.312,166.668 608,167.5C 613.116,168.144 618.282,168.811 623.5,169.5C 621.851,170.988 619.851,171.988 617.5,172.5C 619.078,173.298 620.744,173.798 622.5,174C 623.833,175 623.833,176 622.5,177C 616.538,176.55 610.538,176.716 604.5,177.5C 601.41,177.522 598.743,178.188 596.5,179.5C 605.009,180.167 613.676,180.833 622.5,181.5C 620.053,182.029 618.387,182.696 617.5,183.5C 617.5,183.833 617.5,184.167 617.5,184.5C 617.5,184.833 617.5,185.167 617.5,185.5C 619.288,185.215 620.955,185.548 622.5,186.5C 618.285,187.798 614.118,187.798 610,186.5C 609.283,187.044 608.783,187.711 608.5,188.5C 607.167,189.167 607.167,189.833 608.5,190.5C 613.017,191.166 617.683,191.833 622.5,192.5C 620.709,193.17 619.042,193.837 617.5,194.5C 619.371,195.797 621.371,196.797 623.5,197.5C 613.83,198.117 604.83,198.784 596.5,199.5C 596.5,199.833 596.5,200.167 596.5,200.5C 597.172,201.267 598.005,201.934 599,202.5C 605.769,202.606 612.603,202.44 619.5,202C 621.044,202.29 622.377,202.956 623.5,204C 621.377,205.194 619.043,205.86 616.5,206C 618.441,207.903 620.774,208.736 623.5,208.5C 613.809,210.195 603.809,211.195 593.5,211.5C 592.507,176.573 592.174,141.573 592.5,106.5C 602.653,105.506 612.986,105.172 623.5,105.5 Z"/></g>
<g><path style="opacity:0.919" fill="#bfb085" d="M 623.5,207.5 C 624.451,208.919 624.784,210.585 624.5,212.5C 613.321,212.828 602.321,212.495 591.5,211.5C 592.167,211.5 592.833,211.5 593.5,211.5C 603.809,211.195 613.809,210.195 623.5,208.5C 623.5,208.167 623.5,207.833 623.5,207.5 Z"/></g>
<g><path style="opacity:0.525" fill="#dcd2b2" d="M 596.5,200.5 C 605.917,200.195 615.25,200.528 624.5,201.5C 624.483,203.565 624.15,205.565 623.5,207.5C 623.5,207.833 623.5,208.167 623.5,208.5C 620.774,208.736 618.441,207.903 616.5,206C 619.043,205.86 621.377,205.194 623.5,204C 622.377,202.956 621.044,202.29 619.5,202C 612.603,202.44 605.769,202.606 599,202.5C 598.005,201.934 597.172,201.267 596.5,200.5 Z"/></g>
<g><path style="opacity:0.276" fill="#e4d7bf" d="M 623.5,197.5 C 614.895,199.471 605.895,200.138 596.5,199.5C 604.83,198.784 613.83,198.117 623.5,197.5 Z"/></g>
<g><path style="opacity:0.973" fill="#9d9067" d="M 623.5,184.5 C 624.489,189.975 624.822,195.642 624.5,201.5C 615.25,200.528 605.917,200.195 596.5,200.5C 596.5,200.167 596.5,199.833 596.5,199.5C 605.895,200.138 614.895,199.471 623.5,197.5C 621.371,196.797 619.371,195.797 617.5,194.5C 619.5,194.5 621.5,194.5 623.5,194.5C 623.5,193.167 623.5,191.833 623.5,190.5C 618.5,190.5 613.5,190.5 608.5,190.5C 607.167,189.833 607.167,189.167 608.5,188.5C 613.5,188.5 618.5,188.5 623.5,188.5C 623.5,187.167 623.5,185.833 623.5,184.5 Z"/></g>
<g><path style="opacity:0.029" fill="#f8f4db" d="M 608.5,190.5 C 613.5,190.5 618.5,190.5 623.5,190.5C 623.5,191.833 623.5,193.167 623.5,194.5C 621.5,194.5 619.5,194.5 617.5,194.5C 619.042,193.837 620.709,193.17 622.5,192.5C 617.683,191.833 613.017,191.166 608.5,190.5 Z"/></g>
<g><path style="opacity:0.035" fill="#fffee2" d="M 617.5,185.5 C 617.5,185.167 617.5,184.833 617.5,184.5C 619.5,184.5 621.5,184.5 623.5,184.5C 623.5,185.833 623.5,187.167 623.5,188.5C 618.5,188.5 613.5,188.5 608.5,188.5C 608.783,187.711 609.283,187.044 610,186.5C 614.118,187.798 618.285,187.798 622.5,186.5C 620.955,185.548 619.288,185.215 617.5,185.5 Z"/></g>
<g><path style="opacity:0.029" fill="#f7f5d3" d="M 596.5,179.5 C 596.833,179.5 597.167,179.5 597.5,179.5C 606.5,179.5 615.5,179.5 624.5,179.5C 624.5,180.833 624.5,182.167 624.5,183.5C 622.167,183.5 619.833,183.5 617.5,183.5C 618.387,182.696 620.053,182.029 622.5,181.5C 613.676,180.833 605.009,180.167 596.5,179.5 Z"/></g>
<g><path style="opacity:0.698" fill="#c4b48d" d="M 623.5,162.5 C 623.833,162.5 624.167,162.5 624.5,162.5C 624.805,167.762 624.471,172.928 623.5,178C 614.657,178.17 605.99,178.67 597.5,179.5C 597.167,179.5 596.833,179.5 596.5,179.5C 598.743,178.188 601.41,177.522 604.5,177.5C 610.538,176.716 616.538,176.55 622.5,177C 623.833,176 623.833,175 622.5,174C 620.744,173.798 619.078,173.298 617.5,172.5C 619.851,171.988 621.851,170.988 623.5,169.5C 618.282,168.811 613.116,168.144 608,167.5C 607.312,166.668 607.479,166.002 608.5,165.5C 611.134,164.484 613.8,164.484 616.5,165.5C 618.833,165.5 621.167,165.5 623.5,165.5C 623.5,164.5 623.5,163.5 623.5,162.5 Z"/></g>
<g><path style="opacity:0.037" fill="#fffedb" d="M 618.5,162.5 C 620.167,162.5 621.833,162.5 623.5,162.5C 623.5,163.5 623.5,164.5 623.5,165.5C 621.167,165.5 618.833,165.5 616.5,165.5C 618.292,164.691 620.292,164.191 622.5,164C 620.942,163.79 619.609,163.29 618.5,162.5 Z"/></g>
<g><path style="opacity:0.008" fill="#f7f6ec" d="M 598.5,158.5 C 606.833,158.5 615.167,158.5 623.5,158.5C 623.5,159.5 623.5,160.5 623.5,161.5C 621.5,161.5 619.5,161.5 617.5,161.5C 618.952,160.698 620.618,160.198 622.5,160C 614.323,159.829 606.323,159.329 598.5,158.5 Z"/></g>
<g><path style="opacity:0.778" fill="#958c6a" d="M 596.5,156.5 C 605.833,156.5 615.167,156.5 624.5,156.5C 624.5,158.5 624.5,160.5 624.5,162.5C 624.167,162.5 623.833,162.5 623.5,162.5C 621.833,162.5 620.167,162.5 618.5,162.5C 617.833,162.5 617.5,162.167 617.5,161.5C 619.5,161.5 621.5,161.5 623.5,161.5C 623.5,160.5 623.5,159.5 623.5,158.5C 615.167,158.5 606.833,158.5 598.5,158.5C 597.167,158.5 596.5,157.833 596.5,156.5 Z"/></g>
<g><path style="opacity:0.029" fill="#faf6d5" d="M 618.5,152.5 C 620.5,152.5 622.5,152.5 624.5,152.5C 624.5,153.833 624.5,155.167 624.5,156.5C 615.167,156.5 605.833,156.5 596.5,156.5C 605.324,155.67 614.324,155.17 623.5,155C 621.825,154.015 620.158,153.181 618.5,152.5 Z"/></g>
<g><path style="opacity:0.035" fill="#f2ebcd" d="M 608.5,147.5 C 613.833,147.5 619.167,147.5 624.5,147.5C 624.67,148.822 624.337,149.989 623.5,151C 621.527,151.495 619.527,151.662 617.5,151.5C 619.498,150.852 621.498,150.019 623.5,149C 618.316,148.826 613.316,148.326 608.5,147.5 Z"/></g>
<g><path style="opacity:0.714" fill="#d1c49f" d="M 617.5,141.5 C 619.527,141.338 621.527,141.505 623.5,142C 624.833,143.333 624.833,144.667 623.5,146C 618.316,146.174 613.316,146.674 608.5,147.5C 607.957,147.44 607.624,147.107 607.5,146.5C 612.456,144.834 617.456,144.334 622.5,145C 623.833,144.333 623.833,143.667 622.5,143C 620.618,142.802 618.952,142.302 617.5,141.5 Z"/></g>
<g><path style="opacity:0.015" fill="#fffef2" d="M 591.5,106.5 C 591.833,106.5 592.167,106.5 592.5,106.5C 592.174,141.573 592.507,176.573 593.5,211.5C 592.833,211.5 592.167,211.5 591.5,211.5C 591.5,176.5 591.5,141.5 591.5,106.5 Z"/></g>
<g><path style="opacity:0.537" fill="#d8caa3" d="M 596.5,136.5 C 605.5,136.5 614.5,136.5 623.5,136.5C 623.5,137.833 623.5,139.167 623.5,140.5C 621.833,140.5 620.167,140.5 618.5,140.5C 619.718,139.839 621.051,139.172 622.5,138.5C 613.676,137.833 605.009,137.167 596.5,136.5 Z"/></g>
<g><path style="opacity:0.204" fill="#e9dec0" d="M 618.5,130.5 C 620.5,130.5 622.5,130.5 624.5,130.5C 624.5,132.167 624.5,133.833 624.5,135.5C 615.167,135.5 605.833,135.5 596.5,135.5C 604.99,134.67 613.657,134.17 622.5,134C 623.833,133.333 623.833,132.667 622.5,132C 620.942,131.79 619.609,131.29 618.5,130.5 Z"/></g>
<g><path style="opacity:0.118" fill="#efe9ce" d="M 617.5,119.5 C 619.5,119.5 621.5,119.5 623.5,119.5C 623.5,120.833 623.5,122.167 623.5,123.5C 618.5,123.5 613.5,123.5 608.5,123.5C 613.017,122.834 617.683,122.167 622.5,121.5C 620.709,120.83 619.042,120.163 617.5,119.5 Z"/></g>
<g><path style="opacity:0.143" fill="#f6efd1" d="M 596.5,115.5 C 605.5,115.5 614.5,115.5 623.5,115.5C 623.5,116.5 623.5,117.5 623.5,118.5C 621.5,118.5 619.5,118.5 617.5,118.5C 618.952,117.698 620.618,117.198 622.5,117C 613.657,116.83 604.99,116.33 596.5,115.5 Z"/></g>
<g><path style="opacity:0.565" fill="#b7aa80" d="M 623.5,104.5 C 624.493,112.65 624.826,120.983 624.5,129.5C 622.167,129.5 619.833,129.5 617.5,129.5C 618.919,128.549 620.585,128.216 622.5,128.5C 622.5,127.5 622.5,126.5 622.5,125.5C 617.563,126.433 612.563,126.1 607.5,124.5C 607.624,123.893 607.957,123.56 608.5,123.5C 613.5,123.5 618.5,123.5 623.5,123.5C 623.5,122.167 623.5,120.833 623.5,119.5C 621.5,119.5 619.5,119.5 617.5,119.5C 617.5,119.167 617.5,118.833 617.5,118.5C 619.5,118.5 621.5,118.5 623.5,118.5C 623.5,117.5 623.5,116.5 623.5,115.5C 614.5,115.5 605.5,115.5 596.5,115.5C 602.933,113.695 609.766,112.695 617,112.5C 619.411,113.4 621.578,113.233 623.5,112C 621.624,110.983 619.624,110.149 617.5,109.5C 619.534,108.168 621.534,106.834 623.5,105.5C 623.5,105.167 623.5,104.833 623.5,104.5 Z"/></g>
<g><path style="opacity:0.024" fill="#fffed4" d="M 623.5,104.5 C 623.5,104.833 623.5,105.167 623.5,105.5C 612.986,105.172 602.653,105.506 592.5,106.5C 592.167,106.5 591.833,106.5 591.5,106.5C 601.781,104.524 612.448,103.857 623.5,104.5 Z"/></g>
<g><path style="opacity:1" fill="#92762d" d="M 230.5,186.5 C 231.721,187.028 232.887,187.695 234,188.5C 234.333,188.167 234.667,187.833 235,187.5C 235.977,189.74 236.477,192.073 236.5,194.5C 238.949,193.943 241.282,193.943 243.5,194.5C 244.833,195.833 246.167,197.167 247.5,198.5C 247.154,199.696 246.654,199.696 246,198.5C 245.51,199.793 245.343,201.127 245.5,202.5C 248.794,203.053 250.46,202.053 250.5,199.5C 253.461,200.183 253.795,201.016 251.5,202C 251.594,203.422 251.928,204.922 252.5,206.5C 255.929,208.297 259.429,209.964 263,211.5C 277.034,215.404 290.867,214.904 304.5,210C 307.482,209.502 310.482,209.335 313.5,209.5C 311.208,211.267 308.542,212.267 305.5,212.5C 300.185,212.508 295.185,213.508 290.5,215.5C 268.331,218.057 249.831,211.057 235,194.5C 233.223,191.941 231.723,189.274 230.5,186.5 Z"/></g>
<g><path style="opacity:0.822" fill="#9a8243" d="M 46.5,198.5 C 50.3254,202.008 54.8254,204.675 60,206.5C 60.9454,206.095 61.6121,205.428 62,204.5C 63.4396,206.046 65.2729,206.879 67.5,207C 68.9301,208.886 70.5968,210.553 72.5,212C 85.5621,215.289 98.5621,214.956 111.5,211C 113.555,210.313 115.221,209.146 116.5,207.5C 120.781,206.475 124.781,205.142 128.5,203.5C 117.9,212.249 105.566,216.582 91.5,216.5C 78.745,216.145 66.745,212.978 55.5,207C 52,204.666 49,201.832 46.5,198.5 Z"/></g>
<g><path style="opacity:0.004" fill="#fefffe" d="M 63.5,225.5 C 64.8333,226.167 64.8333,226.167 63.5,225.5 Z"/></g>
<g><path style="opacity:0.004" fill="#fefffe" d="M 101.5,227.5 C 102.833,228.167 102.833,228.167 101.5,227.5 Z"/></g>
<g><path style="opacity:0.004" fill="#fefffe" d="M 461.5,230.5 C 462.833,231.167 462.833,231.167 461.5,230.5 Z"/></g>
<g><path style="opacity:0.004" fill="#fefffe" d="M 208.5,239.5 C 209.833,240.167 209.833,240.167 208.5,239.5 Z"/></g>
<g><path style="opacity:0.004" fill="#fefffe" d="M 665.5,245.5 C 666.833,246.167 666.833,246.167 665.5,245.5 Z"/></g>
<g><path style="opacity:0.004" fill="#fefffe" d="M 322.5,247.5 C 323.833,248.167 323.833,248.167 322.5,247.5 Z"/></g>
<g><path style="opacity:0.004" fill="#fefffe" d="M 124.5,248.5 C 125.833,249.167 125.833,249.167 124.5,248.5 Z"/></g>
<g><path style="opacity:0.004" fill="#fefffe" d="M 206.5,248.5 C 207.833,249.167 207.833,249.167 206.5,248.5 Z"/></g>
<g><path style="opacity:0.004" fill="#fefffe" d="M 540.5,251.5 C 541.833,252.167 541.833,252.167 540.5,251.5 Z"/></g>
<g><path style="opacity:0.004" fill="#fefffe" d="M 831.5,253.5 C 832.833,254.167 832.833,254.167 831.5,253.5 Z"/></g>
<g><path style="opacity:0.004" fill="#fefffe" d="M 111.5,257.5 C 112.833,258.167 112.833,258.167 111.5,257.5 Z"/></g>
<g><path style="opacity:0.004" fill="#fefffe" d="M 209.5,257.5 C 210.833,258.167 210.833,258.167 209.5,257.5 Z"/></g>
<g><path style="opacity:0.004" fill="#fefffe" d="M 442.5,257.5 C 443.833,258.167 443.833,258.167 442.5,257.5 Z"/></g>
<g><path style="opacity:0.004" fill="#fefffe" d="M 549.5,257.5 C 550.833,258.167 550.833,258.167 549.5,257.5 Z"/></g>
<g><path style="opacity:0.004" fill="#fefffe" d="M 628.5,257.5 C 629.833,258.167 629.833,258.167 628.5,257.5 Z"/></g>
<g><path style="opacity:0.004" fill="#fefffe" d="M 89.5,261.5 C 90.8333,262.167 90.8333,262.167 89.5,261.5 Z"/></g>
<g><path style="opacity:0.004" fill="#fefffe" d="M 788.5,262.5 C 789.833,263.167 789.833,263.167 788.5,262.5 Z"/></g>
<g><path style="opacity:0.004" fill="#fefffe" d="M 66.5,267.5 C 67.8333,268.167 67.8333,268.167 66.5,267.5 Z"/></g>
<g><path style="opacity:0.004" fill="#fefffe" d="M 374.5,268.5 C 375.833,269.167 375.833,269.167 374.5,268.5 Z"/></g>
<g><path style="opacity:0.004" fill="#fefffe" d="M 851.5,269.5 C 852.833,270.167 852.833,270.167 851.5,269.5 Z"/></g>
<g><path style="opacity:0.004" fill="#fefffe" d="M 6.5,270.5 C 7.83333,271.167 7.83333,271.167 6.5,270.5 Z"/></g>
<g><path style="opacity:0.004" fill="#fefffe" d="M 524.5,287.5 C 525.833,288.167 525.833,288.167 524.5,287.5 Z"/></g>
<g><path style="opacity:0.004" fill="#fefffe" d="M 168.5,289.5 C 169.833,290.167 169.833,290.167 168.5,289.5 Z"/></g>
</svg>
