<svg width="28" height="25" viewBox="0 0 28 25" fill="none" xmlns="http://www.w3.org/2000/svg">
    <path fill-rule="evenodd" clip-rule="evenodd"
        d="M25.422 9.85548V22.6873H27.7177C27.8732 22.6873 28 22.8024 28 22.9434V24.7439C28 24.8849 27.8732 25 27.7177 25H0.282258C0.207444 24.9999 0.135738 24.9728 0.0828363 24.9248C0.0299349 24.8768 0.00014918 24.8117 0 24.7439V22.9434C0 22.8023 0.12679 22.6872 0.282258 22.6872H2.57798V9.85528C2.93488 9.95036 3.30496 9.99853 3.67692 9.99831C4.09954 9.99861 4.51939 9.93644 4.91998 9.81424C5.88638 9.5189 6.66123 8.90046 7.1177 8.11772C7.77107 9.23622 9.06692 9.99831 10.559 9.99831C10.9816 9.99861 11.4015 9.93644 11.8021 9.81424C12.7685 9.5189 13.5433 8.90046 13.9998 8.11772C14.6531 9.23622 15.949 9.99831 17.4411 9.99831C17.8637 9.99861 18.2835 9.93644 18.6841 9.81424C19.6505 9.5189 20.4254 8.90046 20.8818 8.11772C21.5352 9.23622 22.8311 9.99831 24.3231 9.99831C24.6951 9.99853 25.0651 9.95043 25.422 9.85548ZM7.70395 6.05594L9.4627 0H13.5484V6.05594H7.70395ZM8.5286 0H4.52872C4.4813 0 4.45053 0.016957 4.42863 0.0550717L0.980677 6.05594H6.7699L8.5286 0ZM0.721339 6.87561C0.939016 8.17956 2.1792 9.17869 3.67686 9.17869C4.00169 9.17869 4.3238 9.13156 4.63169 9.0375C5.70122 8.71066 6.46529 7.86824 6.6321 6.87567L0.721339 6.87561ZM7.60341 6.87561C7.82109 8.17956 9.06127 9.17869 10.5589 9.17869C10.8838 9.17869 11.2059 9.13156 11.5138 9.0375C12.5833 8.71066 13.3474 7.86824 13.5142 6.87567L7.60341 6.87561ZM14.4855 6.87561C14.7032 8.17956 15.9433 9.17869 17.441 9.17869C17.7658 9.17869 18.0879 9.13156 18.3958 9.0375C19.4654 8.71066 20.2294 7.86824 20.3962 6.87567L14.4855 6.87561ZM20.296 6.05594L18.5374 0H14.4516V6.05594H20.296ZM21.3676 6.87561C21.5852 8.17956 22.8254 9.17869 24.3231 9.17869C24.6479 9.17869 24.97 9.13156 25.2779 9.0375C26.3474 8.71066 27.1115 7.86824 27.2783 6.87567L21.3676 6.87561ZM19.4714 0H23.4713C23.5187 0 23.5495 0.016957 23.5714 0.0550717L27.0193 6.05594H21.2301L19.4714 0ZM15.8826 18.0872C15.5717 18.0872 15.3181 18.3173 15.3181 18.5995V19.1615C15.3181 19.4436 15.5717 19.6738 15.8826 19.6738H21.9548C22.2658 19.6738 22.5193 19.4436 22.5193 19.1615V18.5995C22.5193 18.3173 22.2658 18.0872 21.9548 18.0872H15.8826ZM15.8826 12.1565C15.5717 12.1565 15.3181 12.3866 15.3181 12.6688V15.7995C15.3181 16.0817 15.5717 16.3118 15.8826 16.3118H21.9548C22.2658 16.3118 22.5193 16.0817 22.5193 15.7995V12.6688C22.5193 12.3866 22.2658 12.1565 21.9548 12.1565H15.8826ZM6.28798 12.1565C5.97704 12.1565 5.72346 12.3866 5.72346 12.6688V22.6872H12.009V12.6688C12.009 12.3866 11.7554 12.1565 11.4444 12.1565H6.28798Z"
        fill="white" fill-opacity="0.5"/>
</svg>
